<svg width="1217" height="40" viewBox="0 0 1217 40" fill="none" xmlns="http://www.w3.org/2000/svg">
<g clip-path="url(#clip0_77_1271)">
<mask id="path-1-inside-1_77_1271" fill="white">
<path d="M0 0H1217V40H0V0Z"/>
</mask>
<g style="mix-blend-mode:soft-light" opacity="0.7">
<path d="M-269.771 -481.105H-315.332V-435.545M-269.771 -481.105V-435.545M-269.771 -481.105H-224.211M-269.771 -435.545H-315.332M-269.771 -435.545V-389.984M-269.771 -435.545H-224.211M-315.332 -435.545V-389.984M-269.771 -389.984H-315.332M-269.771 -389.984V-344.424M-269.771 -389.984H-224.211M-315.332 -389.984V-344.424M-269.771 -344.424H-315.332M-269.771 -344.424V-298.863M-269.771 -344.424H-224.211M-315.332 -344.424V-298.863M-269.771 -298.863H-315.332M-269.771 -298.863V-253.303M-269.771 -298.863H-224.211M-315.332 -298.863V-253.303M-269.771 -253.303H-315.332M-269.771 -253.303V-207.742M-269.771 -253.303H-224.211M-315.332 -253.303V-207.742M-269.771 -207.742H-315.332M-269.771 -207.742V-162.182M-269.771 -207.742H-224.211M-315.332 -207.742V-162.182M-269.771 -162.182H-315.332M-269.771 -162.182V-116.621M-269.771 -162.182H-224.211M-315.332 -162.182V-116.621M-269.771 -116.621H-315.332M-269.771 -116.621V-71.0607M-269.771 -116.621H-224.211M-315.332 -116.621V-71.0607M-269.771 -71.0607H-315.332M-269.771 -71.0607V-25.5002M-269.771 -71.0607H-224.211M-315.332 -71.0607V-25.5002M-269.771 -25.5002H-315.332M-269.771 -25.5002V20.0604M-269.771 -25.5002H-224.211M-315.332 -25.5002V20.0604M-269.771 20.0604H-315.332M-269.771 20.0604V65.6209M-269.771 20.0604H-224.211M-315.332 20.0604V65.6209M-269.771 65.6209H-315.332M-269.771 65.6209V111.181M-269.771 65.6209H-224.211M-315.332 65.6209V111.181M-269.771 111.181H-315.332M-269.771 111.181V156.742M-269.771 111.181H-224.211M-315.332 111.181V156.742M-269.771 156.742H-315.332M-269.771 156.742V202.303M-269.771 156.742H-224.211M-315.332 156.742V202.303M-269.771 202.303H-315.332M-269.771 202.303V247.863M-269.771 202.303H-224.211M-315.332 202.303V247.863M-269.771 247.863H-315.332M-269.771 247.863V293.424M-269.771 247.863H-224.211M-315.332 247.863V293.424M-269.771 293.424H-315.332M-269.771 293.424V338.984M-269.771 293.424H-224.211M-315.332 293.424V338.984M-269.771 338.984H-315.332M-269.771 338.984V384.545M-269.771 338.984H-224.211M-315.332 338.984V384.545M-269.771 384.545H-315.332M-269.771 384.545V430.105M-269.771 384.545H-224.211M-315.332 384.545V430.105H-269.771M-269.771 430.105H-224.211M-224.211 -481.105V-435.545M-224.211 -481.105H-178.65M-224.211 -435.545V-389.984M-224.211 -435.545H-178.65M-224.211 -389.984V-344.424M-224.211 -389.984H-178.65M-224.211 -344.424V-298.863M-224.211 -344.424H-178.65M-224.211 -298.863V-253.303M-224.211 -298.863H-178.65M-224.211 -253.303V-207.742M-224.211 -253.303H-178.65M-224.211 -207.742V-162.182M-224.211 -207.742H-178.65M-224.211 -162.182V-116.621M-224.211 -162.182H-178.65M-224.211 -116.621V-71.0607M-224.211 -116.621H-178.65M-224.211 -71.0607V-25.5002M-224.211 -71.0607H-178.65M-224.211 -25.5002V20.0604M-224.211 -25.5002H-178.65M-224.211 20.0604V65.6209M-224.211 20.0604H-178.65M-224.211 65.6209V111.181M-224.211 65.6209H-178.65M-224.211 111.181V156.742M-224.211 111.181H-178.65M-224.211 156.742V202.303M-224.211 156.742H-178.65M-224.211 202.303V247.863M-224.211 202.303H-178.65M-224.211 247.863V293.424M-224.211 247.863H-178.65M-224.211 293.424V338.984M-224.211 293.424H-178.65M-224.211 338.984V384.545M-224.211 338.984H-178.65M-224.211 384.545V430.105M-224.211 384.545H-178.65M-224.211 430.105H-178.65M-178.65 -481.105V-435.545M-178.65 -481.105H-133.09M-178.65 -435.545V-389.984M-178.65 -435.545H-133.09M-178.65 -389.984V-344.424M-178.65 -389.984H-133.09M-178.65 -344.424V-298.863M-178.65 -344.424H-133.09M-178.65 -298.863V-253.303M-178.65 -298.863H-133.09M-178.65 -253.303V-207.742M-178.65 -253.303H-133.09M-178.65 -207.742V-162.182M-178.65 -207.742H-133.09M-178.65 -162.182V-116.621M-178.65 -162.182H-133.09M-178.65 -116.621V-71.0607M-178.65 -116.621H-133.09M-178.65 -71.0607V-25.5002M-178.65 -71.0607H-133.09M-178.65 -25.5002V20.0604M-178.65 -25.5002H-133.09M-178.65 20.0604V65.6209M-178.65 20.0604H-133.09M-178.65 65.6209V111.181M-178.65 65.6209H-133.09M-178.65 111.181V156.742M-178.65 111.181H-133.09M-178.65 156.742V202.303M-178.65 156.742H-133.09M-178.65 202.303V247.863M-178.65 202.303H-133.09M-178.65 247.863V293.424M-178.65 247.863H-133.09M-178.65 293.424V338.984M-178.65 293.424H-133.09M-178.65 338.984V384.545M-178.65 338.984H-133.09M-178.65 384.545V430.105M-178.65 384.545H-133.09M-178.65 430.105H-133.09M-133.09 -481.105V-435.545M-133.09 -481.105H-87.5291M-133.09 -435.545V-389.984M-133.09 -435.545H-87.5291M-133.09 -389.984V-344.424M-133.09 -389.984H-87.5291M-133.09 -344.424V-298.863M-133.09 -344.424H-87.5291M-133.09 -298.863V-253.303M-133.09 -298.863H-87.5291M-133.09 -253.303V-207.742M-133.09 -253.303H-87.5291M-133.09 -207.742V-162.182M-133.09 -207.742H-87.5291M-133.09 -162.182V-116.621M-133.09 -162.182H-87.5291M-133.09 -116.621V-71.0607M-133.09 -116.621H-87.5291M-133.09 -71.0607V-25.5002M-133.09 -71.0607H-87.5291M-133.09 -25.5002V20.0604M-133.09 -25.5002H-87.5291M-133.09 20.0604V65.6209M-133.09 20.0604H-87.5291M-133.09 65.6209V111.181M-133.09 65.6209H-87.5291M-133.09 111.181V156.742M-133.09 111.181H-87.5291M-133.09 156.742V202.303M-133.09 156.742H-87.5291M-133.09 202.303V247.863M-133.09 202.303H-87.5291M-133.09 247.863V293.424M-133.09 247.863H-87.5291M-133.09 293.424V338.984M-133.09 293.424H-87.5291M-133.09 338.984V384.545M-133.09 338.984H-87.5291M-133.09 384.545V430.105M-133.09 384.545H-87.5291M-133.09 430.105H-87.5291M-87.5291 -481.105V-435.545M-87.5291 -481.105H-41.9686M-87.5291 -435.545V-389.984M-87.5291 -435.545H-41.9686M-87.5291 -389.984V-344.424M-87.5291 -389.984H-41.9686M-87.5291 -344.424V-298.863M-87.5291 -344.424H-41.9686M-87.5291 -298.863V-253.303M-87.5291 -298.863H-41.9686M-87.5291 -253.303V-207.742M-87.5291 -253.303H-41.9686M-87.5291 -207.742V-162.182M-87.5291 -207.742H-41.9686M-87.5291 -162.182V-116.621M-87.5291 -162.182H-41.9686M-87.5291 -116.621V-71.0607M-87.5291 -116.621H-41.9686M-87.5291 -71.0607V-25.5002M-87.5291 -71.0607H-41.9686M-87.5291 -25.5002V20.0604M-87.5291 -25.5002H-41.9686M-87.5291 20.0604V65.6209M-87.5291 20.0604H-41.9686M-87.5291 65.6209V111.181M-87.5291 65.6209H-41.9686M-87.5291 111.181V156.742M-87.5291 111.181H-41.9686M-87.5291 156.742V202.303M-87.5291 156.742H-41.9686M-87.5291 202.303V247.863M-87.5291 202.303H-41.9686M-87.5291 247.863V293.424M-87.5291 247.863H-41.9686M-87.5291 293.424V338.984M-87.5291 293.424H-41.9686M-87.5291 338.984V384.545M-87.5291 338.984H-41.9686M-87.5291 384.545V430.105M-87.5291 384.545H-41.9686M-87.5291 430.105H-41.9686M-41.9686 -481.105V-435.545M-41.9686 -481.105H3.59196M-41.9686 -435.545V-389.984M-41.9686 -435.545H3.59196M-41.9686 -389.984V-344.424M-41.9686 -389.984H3.59196M-41.9686 -344.424V-298.863M-41.9686 -344.424H3.59196M-41.9686 -298.863V-253.303M-41.9686 -298.863H3.59196M-41.9686 -253.303V-207.742M-41.9686 -253.303H3.59196M-41.9686 -207.742V-162.182M-41.9686 -207.742H3.59196M-41.9686 -162.182V-116.621M-41.9686 -162.182H3.59196M-41.9686 -116.621V-71.0607M-41.9686 -116.621H3.59196M-41.9686 -71.0607V-25.5002M-41.9686 -71.0607H3.59196M-41.9686 -25.5002V20.0604M-41.9686 -25.5002H3.59196M-41.9686 20.0604V65.6209M-41.9686 20.0604H3.59196M-41.9686 65.6209V111.181M-41.9686 65.6209H3.59196M-41.9686 111.181V156.742M-41.9686 111.181H3.59196M-41.9686 156.742V202.303M-41.9686 156.742H3.59196M-41.9686 202.303V247.863M-41.9686 202.303H3.59196M-41.9686 247.863V293.424M-41.9686 247.863H3.59196M-41.9686 293.424V338.984M-41.9686 293.424H3.59196M-41.9686 338.984V384.545M-41.9686 338.984H3.59196M-41.9686 384.545V430.105M-41.9686 384.545H3.59196M-41.9686 430.105H3.59196M3.59196 -481.105V-435.545M3.59196 -481.105H49.1525M3.59196 -435.545V-389.984M3.59196 -435.545H49.1525M3.59196 -389.984V-344.424M3.59196 -389.984H49.1525M3.59196 -344.424V-298.863M3.59196 -344.424H49.1525M3.59196 -298.863V-253.303M3.59196 -298.863H49.1525M3.59196 -253.303V-207.742M3.59196 -253.303H49.1525M3.59196 -207.742V-162.182M3.59196 -207.742H49.1525M3.59196 -162.182V-116.621M3.59196 -162.182H49.1525M3.59196 -116.621V-71.0607M3.59196 -116.621H49.1525M3.59196 -71.0607V-25.5002M3.59196 -71.0607H49.1525M3.59196 -25.5002V20.0604M3.59196 -25.5002H49.1525M3.59196 20.0604V65.6209M3.59196 20.0604H49.1525M3.59196 65.6209V111.181M3.59196 65.6209H49.1525M3.59196 111.181V156.742M3.59196 111.181H49.1525M3.59196 156.742V202.303M3.59196 156.742H49.1525M3.59196 202.303V247.863M3.59196 202.303H49.1525M3.59196 247.863V293.424M3.59196 247.863H49.1525M3.59196 293.424V338.984M3.59196 293.424H49.1525M3.59196 338.984V384.545M3.59196 338.984H49.1525M3.59196 384.545V430.105M3.59196 384.545H49.1525M3.59196 430.105H49.1525M49.1525 -481.105V-435.545M49.1525 -481.105H94.713M49.1525 -435.545V-389.984M49.1525 -435.545H94.713M49.1525 -389.984V-344.424M49.1525 -389.984H94.713M49.1525 -344.424V-298.863M49.1525 -344.424H94.713M49.1525 -298.863V-253.303M49.1525 -298.863H94.713M49.1525 -253.303V-207.742M49.1525 -253.303H94.713M49.1525 -207.742V-162.182M49.1525 -207.742H94.713M49.1525 -162.182V-116.621M49.1525 -162.182H94.713M49.1525 -116.621V-71.0607M49.1525 -116.621H94.713M49.1525 -71.0607V-25.5002M49.1525 -71.0607H94.713M49.1525 -25.5002V20.0604M49.1525 -25.5002H94.713M49.1525 20.0604V65.6209M49.1525 20.0604H94.713M49.1525 65.6209V111.181M49.1525 65.6209H94.713M49.1525 111.181V156.742M49.1525 111.181H94.713M49.1525 156.742V202.303M49.1525 156.742H94.713M49.1525 202.303V247.863M49.1525 202.303H94.713M49.1525 247.863V293.424M49.1525 247.863H94.713M49.1525 293.424V338.984M49.1525 293.424H94.713M49.1525 338.984V384.545M49.1525 338.984H94.713M49.1525 384.545V430.105M49.1525 384.545H94.713M49.1525 430.105H94.713M94.713 -481.105V-435.545M94.713 -481.105H140.274M94.713 -435.545V-389.984M94.713 -435.545H140.274M94.713 -389.984V-344.424M94.713 -389.984H140.274M94.713 -344.424V-298.863M94.713 -344.424H140.274M94.713 -298.863V-253.303M94.713 -298.863H140.274M94.713 -253.303V-207.742M94.713 -253.303H140.274M94.713 -207.742V-162.182M94.713 -207.742H140.274M94.713 -162.182V-116.621M94.713 -162.182H140.274M94.713 -116.621V-71.0607M94.713 -116.621H140.274M94.713 -71.0607V-25.5002M94.713 -71.0607H140.274M94.713 -25.5002V20.0604M94.713 -25.5002H140.274M94.713 20.0604V65.6209M94.713 20.0604H140.274M94.713 65.6209V111.181M94.713 65.6209H140.274M94.713 111.181V156.742M94.713 111.181H140.274M94.713 156.742V202.303M94.713 156.742H140.274M94.713 202.303V247.863M94.713 202.303H140.274M94.713 247.863V293.424M94.713 247.863H140.274M94.713 293.424V338.984M94.713 293.424H140.274M94.713 338.984V384.545M94.713 338.984H140.274M94.713 384.545V430.105M94.713 384.545H140.274M94.713 430.105H140.274M140.274 -481.105V-435.545M140.274 -481.105H185.834M140.274 -435.545V-389.984M140.274 -435.545H185.834M140.274 -389.984V-344.424M140.274 -389.984H185.834M140.274 -344.424V-298.863M140.274 -344.424H185.834M140.274 -298.863V-253.303M140.274 -298.863H185.834M140.274 -253.303V-207.742M140.274 -253.303H185.834M140.274 -207.742V-162.182M140.274 -207.742H185.834M140.274 -162.182V-116.621M140.274 -162.182H185.834M140.274 -116.621V-71.0607M140.274 -116.621H185.834M140.274 -71.0607V-25.5002M140.274 -71.0607H185.834M140.274 -25.5002V20.0604M140.274 -25.5002H185.834M140.274 20.0604V65.6209M140.274 20.0604H185.834M140.274 65.6209V111.181M140.274 65.6209H185.834M140.274 111.181V156.742M140.274 111.181H185.834M140.274 156.742V202.303M140.274 156.742H185.834M140.274 202.303V247.863M140.274 202.303H185.834M140.274 247.863V293.424M140.274 247.863H185.834M140.274 293.424V338.984M140.274 293.424H185.834M140.274 338.984V384.545M140.274 338.984H185.834M140.274 384.545V430.105M140.274 384.545H185.834M140.274 430.105H185.834M185.834 -481.105V-435.545M185.834 -481.105H231.395M185.834 -435.545V-389.984M185.834 -435.545H231.395M185.834 -389.984V-344.424M185.834 -389.984H231.395M185.834 -344.424V-298.863M185.834 -344.424H231.395M185.834 -298.863V-253.303M185.834 -298.863H231.395M185.834 -253.303V-207.742M185.834 -253.303H231.395M185.834 -207.742V-162.182M185.834 -207.742H231.395M185.834 -162.182V-116.621M185.834 -162.182H231.395M185.834 -116.621V-71.0607M185.834 -116.621H231.395M185.834 -71.0607V-25.5002M185.834 -71.0607H231.395M185.834 -25.5002V20.0604M185.834 -25.5002H231.395M185.834 20.0604V65.6209M185.834 20.0604H231.395M185.834 65.6209V111.181M185.834 65.6209H231.395M185.834 111.181V156.742M185.834 111.181H231.395M185.834 156.742V202.303M185.834 156.742H231.395M185.834 202.303V247.863M185.834 202.303H231.395M185.834 247.863V293.424M185.834 247.863H231.395M185.834 293.424V338.984M185.834 293.424H231.395M185.834 338.984V384.545M185.834 338.984H231.395M185.834 384.545V430.105M185.834 384.545H231.395M185.834 430.105H231.395M231.395 -481.105V-435.545M231.395 -481.105H276.955M231.395 -435.545V-389.984M231.395 -435.545H276.955M231.395 -389.984V-344.424M231.395 -389.984H276.955M231.395 -344.424V-298.863M231.395 -344.424H276.955M231.395 -298.863V-253.303M231.395 -298.863H276.955M231.395 -253.303V-207.742M231.395 -253.303H276.955M231.395 -207.742V-162.182M231.395 -207.742H276.955M231.395 -162.182V-116.621M231.395 -162.182H276.955M231.395 -116.621V-71.0607M231.395 -116.621H276.955M231.395 -71.0607V-25.5002M231.395 -71.0607H276.955M231.395 -25.5002V20.0604M231.395 -25.5002H276.955M231.395 20.0604V65.6209M231.395 20.0604H276.955M231.395 65.6209V111.181M231.395 65.6209H276.955M231.395 111.181V156.742M231.395 111.181H276.955M231.395 156.742V202.303M231.395 156.742H276.955M231.395 202.303V247.863M231.395 202.303H276.955M231.395 247.863V293.424M231.395 247.863H276.955M231.395 293.424V338.984M231.395 293.424H276.955M231.395 338.984V384.545M231.395 338.984H276.955M231.395 384.545V430.105M231.395 384.545H276.955M231.395 430.105H276.955M276.955 -481.105V-435.545M276.955 -481.105H322.516M276.955 -435.545V-389.984M276.955 -435.545H322.516M276.955 -389.984V-344.424M276.955 -389.984H322.516M276.955 -344.424V-298.863M276.955 -344.424H322.516M276.955 -298.863V-253.303M276.955 -298.863H322.516M276.955 -253.303V-207.742M276.955 -253.303H322.516M276.955 -207.742V-162.182M276.955 -207.742H322.516M276.955 -162.182V-116.621M276.955 -162.182H322.516M276.955 -116.621V-71.0607M276.955 -116.621H322.516M276.955 -71.0607V-25.5002M276.955 -71.0607H322.516M276.955 -25.5002V20.0604M276.955 -25.5002H322.516M276.955 20.0604V65.6209M276.955 20.0604H322.516M276.955 65.6209V111.181M276.955 65.6209H322.516M276.955 111.181V156.742M276.955 111.181H322.516M276.955 156.742V202.303M276.955 156.742H322.516M276.955 202.303V247.863M276.955 202.303H322.516M276.955 247.863V293.424M276.955 247.863H322.516M276.955 293.424V338.984M276.955 293.424H322.516M276.955 338.984V384.545M276.955 338.984H322.516M276.955 384.545V430.105M276.955 384.545H322.516M276.955 430.105H322.516M322.516 -481.105V-435.545M322.516 -481.105H368.076M322.516 -435.545V-389.984M322.516 -435.545H368.076M322.516 -389.984V-344.424M322.516 -389.984H368.076M322.516 -344.424V-298.863M322.516 -344.424H368.076M322.516 -298.863V-253.303M322.516 -298.863H368.076M322.516 -253.303V-207.742M322.516 -253.303H368.076M322.516 -207.742V-162.182M322.516 -207.742H368.076M322.516 -162.182V-116.621M322.516 -162.182H368.076M322.516 -116.621V-71.0607M322.516 -116.621H368.076M322.516 -71.0607V-25.5002M322.516 -71.0607H368.076M322.516 -25.5002V20.0604M322.516 -25.5002H368.076M322.516 20.0604V65.6209M322.516 20.0604H368.076M322.516 65.6209V111.181M322.516 65.6209H368.076M322.516 111.181V156.742M322.516 111.181H368.076M322.516 156.742V202.303M322.516 156.742H368.076M322.516 202.303V247.863M322.516 202.303H368.076M322.516 247.863V293.424M322.516 247.863H368.076M322.516 293.424V338.984M322.516 293.424H368.076M322.516 338.984V384.545M322.516 338.984H368.076M322.516 384.545V430.105M322.516 384.545H368.076M322.516 430.105H368.076M368.076 -481.105V-435.545M368.076 -481.105H413.637M368.076 -435.545V-389.984M368.076 -435.545H413.637M368.076 -389.984V-344.424M368.076 -389.984H413.637M368.076 -344.424V-298.863M368.076 -344.424H413.637M368.076 -298.863V-253.303M368.076 -298.863H413.637M368.076 -253.303V-207.742M368.076 -253.303H413.637M368.076 -207.742V-162.182M368.076 -207.742H413.637M368.076 -162.182V-116.621M368.076 -162.182H413.637M368.076 -116.621V-71.0607M368.076 -116.621H413.637M368.076 -71.0607V-25.5002M368.076 -71.0607H413.637M368.076 -25.5002V20.0604M368.076 -25.5002H413.637M368.076 20.0604V65.6209M368.076 20.0604H413.637M368.076 65.6209V111.181M368.076 65.6209H413.637M368.076 111.181V156.742M368.076 111.181H413.637M368.076 156.742V202.303M368.076 156.742H413.637M368.076 202.303V247.863M368.076 202.303H413.637M368.076 247.863V293.424M368.076 247.863H413.637M368.076 293.424V338.984M368.076 293.424H413.637M368.076 338.984V384.545M368.076 338.984H413.637M368.076 384.545V430.105M368.076 384.545H413.637M368.076 430.105H413.637M413.637 -481.105V-435.545M413.637 -481.105H459.197M413.637 -435.545V-389.984M413.637 -435.545H459.197M413.637 -389.984V-344.424M413.637 -389.984H459.197M413.637 -344.424V-298.863M413.637 -344.424H459.197M413.637 -298.863V-253.303M413.637 -298.863H459.197M413.637 -253.303V-207.742M413.637 -253.303H459.197M413.637 -207.742V-162.182M413.637 -207.742H459.197M413.637 -162.182V-116.621M413.637 -162.182H459.197M413.637 -116.621V-71.0607M413.637 -116.621H459.197M413.637 -71.0607V-25.5002M413.637 -71.0607H459.197M413.637 -25.5002V20.0604M413.637 -25.5002H459.197M413.637 20.0604V65.6209M413.637 20.0604H459.197M413.637 65.6209V111.181M413.637 65.6209H459.197M413.637 111.181V156.742M413.637 111.181H459.197M413.637 156.742V202.303M413.637 156.742H459.197M413.637 202.303V247.863M413.637 202.303H459.197M413.637 247.863V293.424M413.637 247.863H459.197M413.637 293.424V338.984M413.637 293.424H459.197M413.637 338.984V384.545M413.637 338.984H459.197M413.637 384.545V430.105M413.637 384.545H459.197M413.637 430.105H459.197M459.197 -481.105V-435.545M459.197 -481.105H504.758M459.197 -435.545V-389.984M459.197 -435.545H504.758M459.197 -389.984V-344.424M459.197 -389.984H504.758M459.197 -344.424V-298.863M459.197 -344.424H504.758M459.197 -298.863V-253.303M459.197 -298.863H504.758M459.197 -253.303V-207.742M459.197 -253.303H504.758M459.197 -207.742V-162.182M459.197 -207.742H504.758M459.197 -162.182V-116.621M459.197 -162.182H504.758M459.197 -116.621V-71.0607M459.197 -116.621H504.758M459.197 -71.0607V-25.5002M459.197 -71.0607H504.758M459.197 -25.5002V20.0604M459.197 -25.5002H504.758M459.197 20.0604V65.6209M459.197 20.0604H504.758M459.197 65.6209V111.181M459.197 65.6209H504.758M459.197 111.181V156.742M459.197 111.181H504.758M459.197 156.742V202.303M459.197 156.742H504.758M459.197 202.303V247.863M459.197 202.303H504.758M459.197 247.863V293.424M459.197 247.863H504.758M459.197 293.424V338.984M459.197 293.424H504.758M459.197 338.984V384.545M459.197 338.984H504.758M459.197 384.545V430.105M459.197 384.545H504.758M459.197 430.105H504.758M504.758 -481.105V-435.545M504.758 -481.105H550.318M504.758 -435.545V-389.984M504.758 -435.545H550.318M504.758 -389.984V-344.424M504.758 -389.984H550.318M504.758 -344.424V-298.863M504.758 -344.424H550.318M504.758 -298.863V-253.303M504.758 -298.863H550.318M504.758 -253.303V-207.742M504.758 -253.303H550.318M504.758 -207.742V-162.182M504.758 -207.742H550.318M504.758 -162.182V-116.621M504.758 -162.182H550.318M504.758 -116.621V-71.0607M504.758 -116.621H550.318M504.758 -71.0607V-25.5002M504.758 -71.0607H550.318M504.758 -25.5002V20.0604M504.758 -25.5002H550.318M504.758 20.0604V65.6209M504.758 20.0604H550.318M504.758 65.6209V111.181M504.758 65.6209H550.318M504.758 111.181V156.742M504.758 111.181H550.318M504.758 156.742V202.303M504.758 156.742H550.318M504.758 202.303V247.863M504.758 202.303H550.318M504.758 247.863V293.424M504.758 247.863H550.318M504.758 293.424V338.984M504.758 293.424H550.318M504.758 338.984V384.545M504.758 338.984H550.318M504.758 384.545V430.105M504.758 384.545H550.318M504.758 430.105H550.318M550.318 -481.105V-435.545M550.318 -481.105H595.879M550.318 -435.545V-389.984M550.318 -435.545H595.879M550.318 -389.984V-344.424M550.318 -389.984H595.879M550.318 -344.424V-298.863M550.318 -344.424H595.879M550.318 -298.863V-253.303M550.318 -298.863H595.879M550.318 -253.303V-207.742M550.318 -253.303H595.879M550.318 -207.742V-162.182M550.318 -207.742H595.879M550.318 -162.182V-116.621M550.318 -162.182H595.879M550.318 -116.621V-71.0607M550.318 -116.621H595.879M550.318 -71.0607V-25.5002M550.318 -71.0607H595.879M550.318 -25.5002V20.0604M550.318 -25.5002H595.879M550.318 20.0604V65.6209M550.318 20.0604H595.879M550.318 65.6209V111.181M550.318 65.6209H595.879M550.318 111.181V156.742M550.318 111.181H595.879M550.318 156.742V202.303M550.318 156.742H595.879M550.318 202.303V247.863M550.318 202.303H595.879M550.318 247.863V293.424M550.318 247.863H595.879M550.318 293.424V338.984M550.318 293.424H595.879M550.318 338.984V384.545M550.318 338.984H595.879M550.318 384.545V430.105M550.318 384.545H595.879M550.318 430.105H595.879M595.879 -481.105V-435.545M595.879 -481.105H641.439M595.879 -435.545V-389.984M595.879 -435.545H641.439M595.879 -389.984V-344.424M595.879 -389.984H641.439M595.879 -344.424V-298.863M595.879 -344.424H641.439M595.879 -298.863V-253.303M595.879 -298.863H641.439M595.879 -253.303V-207.742M595.879 -253.303H641.439M595.879 -207.742V-162.182M595.879 -207.742H641.439M595.879 -162.182V-116.621M595.879 -162.182H641.439M595.879 -116.621V-71.0607M595.879 -116.621H641.439M595.879 -71.0607V-25.5002M595.879 -71.0607H641.439M595.879 -25.5002V20.0604M595.879 -25.5002H641.439M595.879 20.0604V65.6209M595.879 20.0604H641.439M595.879 65.6209V111.181M595.879 65.6209H641.439M595.879 111.181V156.742M595.879 111.181H641.439M595.879 156.742V202.303M595.879 156.742H641.439M595.879 202.303V247.863M595.879 202.303H641.439M595.879 247.863V293.424M595.879 247.863H641.439M595.879 293.424V338.984M595.879 293.424H641.439M595.879 338.984V384.545M595.879 338.984H641.439M595.879 384.545V430.105M595.879 384.545H641.439M595.879 430.105H641.439M641.439 -481.105V-435.545M641.439 -481.105H687M641.439 -435.545V-389.984M641.439 -435.545H687M641.439 -389.984V-344.424M641.439 -389.984H687M641.439 -344.424V-298.863M641.439 -344.424H687M641.439 -298.863V-253.303M641.439 -298.863H687M641.439 -253.303V-207.742M641.439 -253.303H687M641.439 -207.742V-162.182M641.439 -207.742H687M641.439 -162.182V-116.621M641.439 -162.182H687M641.439 -116.621V-71.0607M641.439 -116.621H687M641.439 -71.0607V-25.5002M641.439 -71.0607H687M641.439 -25.5002V20.0604M641.439 -25.5002H687M641.439 20.0604V65.6209M641.439 20.0604H687M641.439 65.6209V111.181M641.439 65.6209H687M641.439 111.181V156.742M641.439 111.181H687M641.439 156.742V202.303M641.439 156.742H687M641.439 202.303V247.863M641.439 202.303H687M641.439 247.863V293.424M641.439 247.863H687M641.439 293.424V338.984M641.439 293.424H687M641.439 338.984V384.545M641.439 338.984H687M641.439 384.545V430.105M641.439 384.545H687M641.439 430.105H687M687 -481.105V-435.545M687 -481.105H732.56M687 -435.545V-389.984M687 -435.545H732.56M687 -389.984V-344.424M687 -389.984H732.56M687 -344.424V-298.863M687 -344.424H732.56M687 -298.863V-253.303M687 -298.863H732.56M687 -253.303V-207.742M687 -253.303H732.56M687 -207.742V-162.182M687 -207.742H732.56M687 -162.182V-116.621M687 -162.182H732.56M687 -116.621V-71.0607M687 -116.621H732.56M687 -71.0607V-25.5002M687 -71.0607H732.56M687 -25.5002V20.0604M687 -25.5002H732.56M687 20.0604V65.6209M687 20.0604H732.56M687 65.6209V111.181M687 65.6209H732.56M687 111.181V156.742M687 111.181H732.56M687 156.742V202.303M687 156.742H732.56M687 202.303V247.863M687 202.303H732.56M687 247.863V293.424M687 247.863H732.56M687 293.424V338.984M687 293.424H732.56M687 338.984V384.545M687 338.984H732.56M687 384.545V430.105M687 384.545H732.56M687 430.105H732.56M732.56 -481.105V-435.545M732.56 -481.105H778.121M732.56 -435.545V-389.984M732.56 -435.545H778.121M732.56 -389.984V-344.424M732.56 -389.984H778.121M732.56 -344.424V-298.863M732.56 -344.424H778.121M732.56 -298.863V-253.303M732.56 -298.863H778.121M732.56 -253.303V-207.742M732.56 -253.303H778.121M732.56 -207.742V-162.182M732.56 -207.742H778.121M732.56 -162.182V-116.621M732.56 -162.182H778.121M732.56 -116.621V-71.0607M732.56 -116.621H778.121M732.56 -71.0607V-25.5002M732.56 -71.0607H778.121M732.56 -25.5002V20.0604M732.56 -25.5002H778.121M732.56 20.0604V65.6209M732.56 20.0604H778.121M732.56 65.6209V111.181M732.56 65.6209H778.121M732.56 111.181V156.742M732.56 111.181H778.121M732.56 156.742V202.303M732.56 156.742H778.121M732.56 202.303V247.863M732.56 202.303H778.121M732.56 247.863V293.424M732.56 247.863H778.121M732.56 293.424V338.984M732.56 293.424H778.121M732.56 338.984V384.545M732.56 338.984H778.121M732.56 384.545V430.105M732.56 384.545H778.121M732.56 430.105H778.121M778.121 -481.105V-435.545M778.121 -481.105H823.682M778.121 -435.545V-389.984M778.121 -435.545H823.682M778.121 -389.984V-344.424M778.121 -389.984H823.682M778.121 -344.424V-298.863M778.121 -344.424H823.682M778.121 -298.863V-253.303M778.121 -298.863H823.682M778.121 -253.303V-207.742M778.121 -253.303H823.682M778.121 -207.742V-162.182M778.121 -207.742H823.682M778.121 -162.182V-116.621M778.121 -162.182H823.682M778.121 -116.621V-71.0607M778.121 -116.621H823.682M778.121 -71.0607V-25.5002M778.121 -71.0607H823.682M778.121 -25.5002V20.0604M778.121 -25.5002H823.682M778.121 20.0604V65.6209M778.121 20.0604H823.682M778.121 65.6209V111.181M778.121 65.6209H823.682M778.121 111.181V156.742M778.121 111.181H823.682M778.121 156.742V202.303M778.121 156.742H823.682M778.121 202.303V247.863M778.121 202.303H823.682M778.121 247.863V293.424M778.121 247.863H823.682M778.121 293.424V338.984M778.121 293.424H823.682M778.121 338.984V384.545M778.121 338.984H823.682M778.121 384.545V430.105M778.121 384.545H823.682M778.121 430.105H823.682M823.682 -481.105V-435.545M823.682 -481.105H869.242M823.682 -435.545V-389.984M823.682 -435.545H869.242M823.682 -389.984V-344.424M823.682 -389.984H869.242M823.682 -344.424V-298.863M823.682 -344.424H869.242M823.682 -298.863V-253.303M823.682 -298.863H869.242M823.682 -253.303V-207.742M823.682 -253.303H869.242M823.682 -207.742V-162.182M823.682 -207.742H869.242M823.682 -162.182V-116.621M823.682 -162.182H869.242M823.682 -116.621V-71.0607M823.682 -116.621H869.242M823.682 -71.0607V-25.5002M823.682 -71.0607H869.242M823.682 -25.5002V20.0604M823.682 -25.5002H869.242M823.682 20.0604V65.6209M823.682 20.0604H869.242M823.682 65.6209V111.181M823.682 65.6209H869.242M823.682 111.181V156.742M823.682 111.181H869.242M823.682 156.742V202.303M823.682 156.742H869.242M823.682 202.303V247.863M823.682 202.303H869.242M823.682 247.863V293.424M823.682 247.863H869.242M823.682 293.424V338.984M823.682 293.424H869.242M823.682 338.984V384.545M823.682 338.984H869.242M823.682 384.545V430.105M823.682 384.545H869.242M823.682 430.105H869.242M869.242 -481.105V-435.545M869.242 -481.105H914.803M869.242 -435.545V-389.984M869.242 -435.545H914.803M869.242 -389.984V-344.424M869.242 -389.984H914.803M869.242 -344.424V-298.863M869.242 -344.424H914.803M869.242 -298.863V-253.303M869.242 -298.863H914.803M869.242 -253.303V-207.742M869.242 -253.303H914.803M869.242 -207.742V-162.182M869.242 -207.742H914.803M869.242 -162.182V-116.621M869.242 -162.182H914.803M869.242 -116.621V-71.0607M869.242 -116.621H914.803M869.242 -71.0607V-25.5002M869.242 -71.0607H914.803M869.242 -25.5002V20.0604M869.242 -25.5002H914.803M869.242 20.0604V65.6209M869.242 20.0604H914.803M869.242 65.6209V111.181M869.242 65.6209H914.803M869.242 111.181V156.742M869.242 111.181H914.803M869.242 156.742V202.303M869.242 156.742H914.803M869.242 202.303V247.863M869.242 202.303H914.803M869.242 247.863V293.424M869.242 247.863H914.803M869.242 293.424V338.984M869.242 293.424H914.803M869.242 338.984V384.545M869.242 338.984H914.803M869.242 384.545V430.105M869.242 384.545H914.803M869.242 430.105H914.803M914.803 -481.105V-435.545M914.803 -481.105H960.363M914.803 -435.545V-389.984M914.803 -435.545H960.363M914.803 -389.984V-344.424M914.803 -389.984H960.363M914.803 -344.424V-298.863M914.803 -344.424H960.363M914.803 -298.863V-253.303M914.803 -298.863H960.363M914.803 -253.303V-207.742M914.803 -253.303H960.363M914.803 -207.742V-162.182M914.803 -207.742H960.363M914.803 -162.182V-116.621M914.803 -162.182H960.363M914.803 -116.621V-71.0607M914.803 -116.621H960.363M914.803 -71.0607V-25.5002M914.803 -71.0607H960.363M914.803 -25.5002V20.0604M914.803 -25.5002H960.363M914.803 20.0604V65.6209M914.803 20.0604H960.363M914.803 65.6209V111.181M914.803 65.6209H960.363M914.803 111.181V156.742M914.803 111.181H960.363M914.803 156.742V202.303M914.803 156.742H960.363M914.803 202.303V247.863M914.803 202.303H960.363M914.803 247.863V293.424M914.803 247.863H960.363M914.803 293.424V338.984M914.803 293.424H960.363M914.803 338.984V384.545M914.803 338.984H960.363M914.803 384.545V430.105M914.803 384.545H960.363M914.803 430.105H960.363M960.363 -481.105V-435.545M960.363 -481.105H1005.92M960.363 -435.545V-389.984M960.363 -435.545H1005.92M960.363 -389.984V-344.424M960.363 -389.984H1005.92M960.363 -344.424V-298.863M960.363 -344.424H1005.92M960.363 -298.863V-253.303M960.363 -298.863H1005.92M960.363 -253.303V-207.742M960.363 -253.303H1005.92M960.363 -207.742V-162.182M960.363 -207.742H1005.92M960.363 -162.182V-116.621M960.363 -162.182H1005.92M960.363 -116.621V-71.0607M960.363 -116.621H1005.92M960.363 -71.0607V-25.5002M960.363 -71.0607H1005.92M960.363 -25.5002V20.0604M960.363 -25.5002H1005.92M960.363 20.0604V65.6209M960.363 20.0604H1005.92M960.363 65.6209V111.181M960.363 65.6209H1005.92M960.363 111.181V156.742M960.363 111.181H1005.92M960.363 156.742V202.303M960.363 156.742H1005.92M960.363 202.303V247.863M960.363 202.303H1005.92M960.363 247.863V293.424M960.363 247.863H1005.92M960.363 293.424V338.984M960.363 293.424H1005.92M960.363 338.984V384.545M960.363 338.984H1005.92M960.363 384.545V430.105M960.363 384.545H1005.92M960.363 430.105H1005.92M1005.92 -481.105V-435.545M1005.92 -481.105H1051.48M1005.92 -435.545V-389.984M1005.92 -435.545H1051.48M1005.92 -389.984V-344.424M1005.92 -389.984H1051.48M1005.92 -344.424V-298.863M1005.92 -344.424H1051.48M1005.92 -298.863V-253.303M1005.92 -298.863H1051.48M1005.92 -253.303V-207.742M1005.92 -253.303H1051.48M1005.92 -207.742V-162.182M1005.92 -207.742H1051.48M1005.92 -162.182V-116.621M1005.92 -162.182H1051.48M1005.92 -116.621V-71.0607M1005.92 -116.621H1051.48M1005.92 -71.0607V-25.5002M1005.92 -71.0607H1051.48M1005.92 -25.5002V20.0604M1005.92 -25.5002H1051.48M1005.92 20.0604V65.6209M1005.92 20.0604H1051.48M1005.92 65.6209V111.181M1005.92 65.6209H1051.48M1005.92 111.181V156.742M1005.92 111.181H1051.48M1005.92 156.742V202.303M1005.92 156.742H1051.48M1005.92 202.303V247.863M1005.92 202.303H1051.48M1005.92 247.863V293.424M1005.92 247.863H1051.48M1005.92 293.424V338.984M1005.92 293.424H1051.48M1005.92 338.984V384.545M1005.92 338.984H1051.48M1005.92 384.545V430.105M1005.92 384.545H1051.48M1005.92 430.105H1051.48M1051.48 -481.105V-435.545M1051.48 -481.105H1097.04M1051.48 -435.545V-389.984M1051.48 -435.545H1097.04M1051.48 -389.984V-344.424M1051.48 -389.984H1097.04M1051.48 -344.424V-298.863M1051.48 -344.424H1097.04M1051.48 -298.863V-253.303M1051.48 -298.863H1097.04M1051.48 -253.303V-207.742M1051.48 -253.303H1097.04M1051.48 -207.742V-162.182M1051.48 -207.742H1097.04M1051.48 -162.182V-116.621M1051.48 -162.182H1097.04M1051.48 -116.621V-71.0607M1051.48 -116.621H1097.04M1051.48 -71.0607V-25.5002M1051.48 -71.0607H1097.04M1051.48 -25.5002V20.0604M1051.48 -25.5002H1097.04M1051.48 20.0604V65.6209M1051.48 20.0604H1097.04M1051.48 65.6209V111.181M1051.48 65.6209H1097.04M1051.48 111.181V156.742M1051.48 111.181H1097.04M1051.48 156.742V202.303M1051.48 156.742H1097.04M1051.48 202.303V247.863M1051.48 202.303H1097.04M1051.48 247.863V293.424M1051.48 247.863H1097.04M1051.48 293.424V338.984M1051.48 293.424H1097.04M1051.48 338.984V384.545M1051.48 338.984H1097.04M1051.48 384.545V430.105M1051.48 384.545H1097.04M1051.48 430.105H1097.04M1097.04 -481.105V-435.545M1097.04 -481.105H1142.61M1097.04 -435.545V-389.984M1097.04 -435.545H1142.61M1097.04 -389.984V-344.424M1097.04 -389.984H1142.61M1097.04 -344.424V-298.863M1097.04 -344.424H1142.61M1097.04 -298.863V-253.303M1097.04 -298.863H1142.61M1097.04 -253.303V-207.742M1097.04 -253.303H1142.61M1097.04 -207.742V-162.182M1097.04 -207.742H1142.61M1097.04 -162.182V-116.621M1097.04 -162.182H1142.61M1097.04 -116.621V-71.0607M1097.04 -116.621H1142.61M1097.04 -71.0607V-25.5002M1097.04 -71.0607H1142.61M1097.04 -25.5002V20.0604M1097.04 -25.5002H1142.61M1097.04 20.0604V65.6209M1097.04 20.0604H1142.61M1097.04 65.6209V111.181M1097.04 65.6209H1142.61M1097.04 111.181V156.742M1097.04 111.181H1142.61M1097.04 156.742V202.303M1097.04 156.742H1142.61M1097.04 202.303V247.863M1097.04 202.303H1142.61M1097.04 247.863V293.424M1097.04 247.863H1142.61M1097.04 293.424V338.984M1097.04 293.424H1142.61M1097.04 338.984V384.545M1097.04 338.984H1142.61M1097.04 384.545V430.105M1097.04 384.545H1142.61M1097.04 430.105H1142.61M1142.61 -481.105V-435.545M1142.61 -481.105H1188.17M1142.61 -435.545V-389.984M1142.61 -435.545H1188.17M1142.61 -389.984V-344.424M1142.61 -389.984H1188.17M1142.61 -344.424V-298.863M1142.61 -344.424H1188.17M1142.61 -298.863V-253.303M1142.61 -298.863H1188.17M1142.61 -253.303V-207.742M1142.61 -253.303H1188.17M1142.61 -207.742V-162.182M1142.61 -207.742H1188.17M1142.61 -162.182V-116.621M1142.61 -162.182H1188.17M1142.61 -116.621V-71.0607M1142.61 -116.621H1188.17M1142.61 -71.0607V-25.5002M1142.61 -71.0607H1188.17M1142.61 -25.5002V20.0604M1142.61 -25.5002H1188.17M1142.61 20.0604V65.6209M1142.61 20.0604H1188.17M1142.61 65.6209V111.181M1142.61 65.6209H1188.17M1142.61 111.181V156.742M1142.61 111.181H1188.17M1142.61 156.742V202.303M1142.61 156.742H1188.17M1142.61 202.303V247.863M1142.61 202.303H1188.17M1142.61 247.863V293.424M1142.61 247.863H1188.17M1142.61 293.424V338.984M1142.61 293.424H1188.17M1142.61 338.984V384.545M1142.61 338.984H1188.17M1142.61 384.545V430.105M1142.61 384.545H1188.17M1142.61 430.105H1188.17M1188.17 -481.105V-435.545M1188.17 -481.105H1233.73M1188.17 -435.545V-389.984M1188.17 -435.545H1233.73M1188.17 -389.984V-344.424M1188.17 -389.984H1233.73M1188.17 -344.424V-298.863M1188.17 -344.424H1233.73M1188.17 -298.863V-253.303M1188.17 -298.863H1233.73M1188.17 -253.303V-207.742M1188.17 -253.303H1233.73M1188.17 -207.742V-162.182M1188.17 -207.742H1233.73M1188.17 -162.182V-116.621M1188.17 -162.182H1233.73M1188.17 -116.621V-71.0607M1188.17 -116.621H1233.73M1188.17 -71.0607V-25.5002M1188.17 -71.0607H1233.73M1188.17 -25.5002V20.0604M1188.17 -25.5002H1233.73M1188.17 20.0604V65.6209M1188.17 20.0604H1233.73M1188.17 65.6209V111.181M1188.17 65.6209H1233.73M1188.17 111.181V156.742M1188.17 111.181H1233.73M1188.17 156.742V202.303M1188.17 156.742H1233.73M1188.17 202.303V247.863M1188.17 202.303H1233.73M1188.17 247.863V293.424M1188.17 247.863H1233.73M1188.17 293.424V338.984M1188.17 293.424H1233.73M1188.17 338.984V384.545M1188.17 338.984H1233.73M1188.17 384.545V430.105M1188.17 384.545H1233.73M1188.17 430.105H1233.73M1233.73 -481.105V-435.545M1233.73 -481.105H1279.29M1233.73 -435.545V-389.984M1233.73 -435.545H1279.29M1233.73 -389.984V-344.424M1233.73 -389.984H1279.29M1233.73 -344.424V-298.863M1233.73 -344.424H1279.29M1233.73 -298.863V-253.303M1233.73 -298.863H1279.29M1233.73 -253.303V-207.742M1233.73 -253.303H1279.29M1233.73 -207.742V-162.182M1233.73 -207.742H1279.29M1233.73 -162.182V-116.621M1233.73 -162.182H1279.29M1233.73 -116.621V-71.0607M1233.73 -116.621H1279.29M1233.73 -71.0607V-25.5002M1233.73 -71.0607H1279.29M1233.73 -25.5002V20.0604M1233.73 -25.5002H1279.29M1233.73 20.0604V65.6209M1233.73 20.0604H1279.29M1233.73 65.6209V111.181M1233.73 65.6209H1279.29M1233.73 111.181V156.742M1233.73 111.181H1279.29M1233.73 156.742V202.303M1233.73 156.742H1279.29M1233.73 202.303V247.863M1233.73 202.303H1279.29M1233.73 247.863V293.424M1233.73 247.863H1279.29M1233.73 293.424V338.984M1233.73 293.424H1279.29M1233.73 338.984V384.545M1233.73 338.984H1279.29M1233.73 384.545V430.105M1233.73 384.545H1279.29M1233.73 430.105H1279.29M1279.29 -481.105V-435.545M1279.29 -481.105H1324.85M1279.29 -435.545V-389.984M1279.29 -435.545H1324.85M1279.29 -389.984V-344.424M1279.29 -389.984H1324.85M1279.29 -344.424V-298.863M1279.29 -344.424H1324.85M1279.29 -298.863V-253.303M1279.29 -298.863H1324.85M1279.29 -253.303V-207.742M1279.29 -253.303H1324.85M1279.29 -207.742V-162.182M1279.29 -207.742H1324.85M1279.29 -162.182V-116.621M1279.29 -162.182H1324.85M1279.29 -116.621V-71.0607M1279.29 -116.621H1324.85M1279.29 -71.0607V-25.5002M1279.29 -71.0607H1324.85M1279.29 -25.5002V20.0604M1279.29 -25.5002H1324.85M1279.29 20.0604V65.6209M1279.29 20.0604H1324.85M1279.29 65.6209V111.181M1279.29 65.6209H1324.85M1279.29 111.181V156.742M1279.29 111.181H1324.85M1279.29 156.742V202.303M1279.29 156.742H1324.85M1279.29 202.303V247.863M1279.29 202.303H1324.85M1279.29 247.863V293.424M1279.29 247.863H1324.85M1279.29 293.424V338.984M1279.29 293.424H1324.85M1279.29 338.984V384.545M1279.29 338.984H1324.85M1279.29 384.545V430.105M1279.29 384.545H1324.85M1279.29 430.105H1324.85M1324.85 -481.105V-435.545M1324.85 -481.105H1370.41M1324.85 -435.545V-389.984M1324.85 -435.545H1370.41M1324.85 -389.984V-344.424M1324.85 -389.984H1370.41M1324.85 -344.424V-298.863M1324.85 -344.424H1370.41M1324.85 -298.863V-253.303M1324.85 -298.863H1370.41M1324.85 -253.303V-207.742M1324.85 -253.303H1370.41M1324.85 -207.742V-162.182M1324.85 -207.742H1370.41M1324.85 -162.182V-116.621M1324.85 -162.182H1370.41M1324.85 -116.621V-71.0607M1324.85 -116.621H1370.41M1324.85 -71.0607V-25.5002M1324.85 -71.0607H1370.41M1324.85 -25.5002V20.0604M1324.85 -25.5002H1370.41M1324.85 20.0604V65.6209M1324.85 20.0604H1370.41M1324.85 65.6209V111.181M1324.85 65.6209H1370.41M1324.85 111.181V156.742M1324.85 111.181H1370.41M1324.85 156.742V202.303M1324.85 156.742H1370.41M1324.85 202.303V247.863M1324.85 202.303H1370.41M1324.85 247.863V293.424M1324.85 247.863H1370.41M1324.85 293.424V338.984M1324.85 293.424H1370.41M1324.85 338.984V384.545M1324.85 338.984H1370.41M1324.85 384.545V430.105M1324.85 384.545H1370.41M1324.85 430.105H1370.41M1370.41 -481.105V-435.545M1370.41 -481.105H1415.97M1370.41 -435.545V-389.984M1370.41 -435.545H1415.97M1370.41 -389.984V-344.424M1370.41 -389.984H1415.97M1370.41 -344.424V-298.863M1370.41 -344.424H1415.97M1370.41 -298.863V-253.303M1370.41 -298.863H1415.97M1370.41 -253.303V-207.742M1370.41 -253.303H1415.97M1370.41 -207.742V-162.182M1370.41 -207.742H1415.97M1370.41 -162.182V-116.621M1370.41 -162.182H1415.97M1370.41 -116.621V-71.0607M1370.41 -116.621H1415.97M1370.41 -71.0607V-25.5002M1370.41 -71.0607H1415.97M1370.41 -25.5002V20.0604M1370.41 -25.5002H1415.97M1370.41 20.0604V65.6209M1370.41 20.0604H1415.97M1370.41 65.6209V111.181M1370.41 65.6209H1415.97M1370.41 111.181V156.742M1370.41 111.181H1415.97M1370.41 156.742V202.303M1370.41 156.742H1415.97M1370.41 202.303V247.863M1370.41 202.303H1415.97M1370.41 247.863V293.424M1370.41 247.863H1415.97M1370.41 293.424V338.984M1370.41 293.424H1415.97M1370.41 338.984V384.545M1370.41 338.984H1415.97M1370.41 384.545V430.105M1370.41 384.545H1415.97M1370.41 430.105H1415.97M1415.97 -481.105V-435.545M1415.97 -481.105H1461.53M1415.97 -435.545V-389.984M1415.97 -435.545H1461.53M1415.97 -389.984V-344.424M1415.97 -389.984H1461.53M1415.97 -344.424V-298.863M1415.97 -344.424H1461.53M1415.97 -298.863V-253.303M1415.97 -298.863H1461.53M1415.97 -253.303V-207.742M1415.97 -253.303H1461.53M1415.97 -207.742V-162.182M1415.97 -207.742H1461.53M1415.97 -162.182V-116.621M1415.97 -162.182H1461.53M1415.97 -116.621V-71.0607M1415.97 -116.621H1461.53M1415.97 -71.0607V-25.5002M1415.97 -71.0607H1461.53M1415.97 -25.5002V20.0604M1415.97 -25.5002H1461.53M1415.97 20.0604V65.6209M1415.97 20.0604H1461.53M1415.97 65.6209V111.181M1415.97 65.6209H1461.53M1415.97 111.181V156.742M1415.97 111.181H1461.53M1415.97 156.742V202.303M1415.97 156.742H1461.53M1415.97 202.303V247.863M1415.97 202.303H1461.53M1415.97 247.863V293.424M1415.97 247.863H1461.53M1415.97 293.424V338.984M1415.97 293.424H1461.53M1415.97 338.984V384.545M1415.97 338.984H1461.53M1415.97 384.545V430.105M1415.97 384.545H1461.53M1415.97 430.105H1461.53M1461.53 -481.105V-435.545M1461.53 -481.105H1507.09M1461.53 -435.545V-389.984M1461.53 -435.545H1507.09M1461.53 -389.984V-344.424M1461.53 -389.984H1507.09M1461.53 -344.424V-298.863M1461.53 -344.424H1507.09M1461.53 -298.863V-253.303M1461.53 -298.863H1507.09M1461.53 -253.303V-207.742M1461.53 -253.303H1507.09M1461.53 -207.742V-162.182M1461.53 -207.742H1507.09M1461.53 -162.182V-116.621M1461.53 -162.182H1507.09M1461.53 -116.621V-71.0607M1461.53 -116.621H1507.09M1461.53 -71.0607V-25.5002M1461.53 -71.0607H1507.09M1461.53 -25.5002V20.0604M1461.53 -25.5002H1507.09M1461.53 20.0604V65.6209M1461.53 20.0604H1507.09M1461.53 65.6209V111.181M1461.53 65.6209H1507.09M1461.53 111.181V156.742M1461.53 111.181H1507.09M1461.53 156.742V202.303M1461.53 156.742H1507.09M1461.53 202.303V247.863M1461.53 202.303H1507.09M1461.53 247.863V293.424M1461.53 247.863H1507.09M1461.53 293.424V338.984M1461.53 293.424H1507.09M1461.53 338.984V384.545M1461.53 338.984H1507.09M1461.53 384.545V430.105M1461.53 384.545H1507.09M1461.53 430.105H1507.09M1507.09 -481.105V-435.545M1507.09 -481.105H1552.65M1507.09 -435.545V-389.984M1507.09 -435.545H1552.65M1507.09 -389.984V-344.424M1507.09 -389.984H1552.65M1507.09 -344.424V-298.863M1507.09 -344.424H1552.65M1507.09 -298.863V-253.303M1507.09 -298.863H1552.65M1507.09 -253.303V-207.742M1507.09 -253.303H1552.65M1507.09 -207.742V-162.182M1507.09 -207.742H1552.65M1507.09 -162.182V-116.621M1507.09 -162.182H1552.65M1507.09 -116.621V-71.0607M1507.09 -116.621H1552.65M1507.09 -71.0607V-25.5002M1507.09 -71.0607H1552.65M1507.09 -25.5002V20.0604M1507.09 -25.5002H1552.65M1507.09 20.0604V65.6209M1507.09 20.0604H1552.65M1507.09 65.6209V111.181M1507.09 65.6209H1552.65M1507.09 111.181V156.742M1507.09 111.181H1552.65M1507.09 156.742V202.303M1507.09 156.742H1552.65M1507.09 202.303V247.863M1507.09 202.303H1552.65M1507.09 247.863V293.424M1507.09 247.863H1552.65M1507.09 293.424V338.984M1507.09 293.424H1552.65M1507.09 338.984V384.545M1507.09 338.984H1552.65M1507.09 384.545V430.105M1507.09 384.545H1552.65M1507.09 430.105H1552.65M1552.65 -481.105V-435.545M1552.65 -481.105H1598.21M1552.65 -435.545V-389.984M1552.65 -435.545H1598.21M1552.65 -389.984V-344.424M1552.65 -389.984H1598.21M1552.65 -344.424V-298.863M1552.65 -344.424H1598.21M1552.65 -298.863V-253.303M1552.65 -298.863H1598.21M1552.65 -253.303V-207.742M1552.65 -253.303H1598.21M1552.65 -207.742V-162.182M1552.65 -207.742H1598.21M1552.65 -162.182V-116.621M1552.65 -162.182H1598.21M1552.65 -116.621V-71.0607M1552.65 -116.621H1598.21M1552.65 -71.0607V-25.5002M1552.65 -71.0607H1598.21M1552.65 -25.5002V20.0604M1552.65 -25.5002H1598.21M1552.65 20.0604V65.6209M1552.65 20.0604H1598.21M1552.65 65.6209V111.181M1552.65 65.6209H1598.21M1552.65 111.181V156.742M1552.65 111.181H1598.21M1552.65 156.742V202.303M1552.65 156.742H1598.21M1552.65 202.303V247.863M1552.65 202.303H1598.21M1552.65 247.863V293.424M1552.65 247.863H1598.21M1552.65 293.424V338.984M1552.65 293.424H1598.21M1552.65 338.984V384.545M1552.65 338.984H1598.21M1552.65 384.545V430.105M1552.65 384.545H1598.21M1552.65 430.105H1598.21M1598.21 -481.105V-435.545M1598.21 -481.105H1643.77M1598.21 -435.545V-389.984M1598.21 -435.545H1643.77M1598.21 -389.984V-344.424M1598.21 -389.984H1643.77M1598.21 -344.424V-298.863M1598.21 -344.424H1643.77M1598.21 -298.863V-253.303M1598.21 -298.863H1643.77M1598.21 -253.303V-207.742M1598.21 -253.303H1643.77M1598.21 -207.742V-162.182M1598.21 -207.742H1643.77M1598.21 -162.182V-116.621M1598.21 -162.182H1643.77M1598.21 -116.621V-71.0607M1598.21 -116.621H1643.77M1598.21 -71.0607V-25.5002M1598.21 -71.0607H1643.77M1598.21 -25.5002V20.0604M1598.21 -25.5002H1643.77M1598.21 20.0604V65.6209M1598.21 20.0604H1643.77M1598.21 65.6209V111.181M1598.21 65.6209H1643.77M1598.21 111.181V156.742M1598.21 111.181H1643.77M1598.21 156.742V202.303M1598.21 156.742H1643.77M1598.21 202.303V247.863M1598.21 202.303H1643.77M1598.21 247.863V293.424M1598.21 247.863H1643.77M1598.21 293.424V338.984M1598.21 293.424H1643.77M1598.21 338.984V384.545M1598.21 338.984H1643.77M1598.21 384.545V430.105M1598.21 384.545H1643.77M1598.21 430.105H1643.77M1643.77 -481.105V-435.545M1643.77 -481.105H1689.33V-435.545M1643.77 -435.545V-389.984M1643.77 -435.545H1689.33M1643.77 -389.984V-344.424M1643.77 -389.984H1689.33M1643.77 -344.424V-298.863M1643.77 -344.424H1689.33M1643.77 -298.863V-253.303M1643.77 -298.863H1689.33M1643.77 -253.303V-207.742M1643.77 -253.303H1689.33M1643.77 -207.742V-162.182M1643.77 -207.742H1689.33M1643.77 -162.182V-116.621M1643.77 -162.182H1689.33M1643.77 -116.621V-71.0607M1643.77 -116.621H1689.33M1643.77 -71.0607V-25.5002M1643.77 -71.0607H1689.33M1643.77 -25.5002V20.0604M1643.77 -25.5002H1689.33M1643.77 20.0604V65.6209M1643.77 20.0604H1689.33M1643.77 65.6209V111.181M1643.77 65.6209H1689.33M1643.77 111.181V156.742M1643.77 111.181H1689.33M1643.77 156.742V202.303M1643.77 156.742H1689.33M1643.77 202.303V247.863M1643.77 202.303H1689.33M1643.77 247.863V293.424M1643.77 247.863H1689.33M1643.77 293.424V338.984M1643.77 293.424H1689.33M1643.77 338.984V384.545M1643.77 338.984H1689.33M1643.77 384.545V430.105M1643.77 384.545H1689.33M1643.77 430.105H1689.33V384.545M1689.33 -435.545V-389.984M1689.33 -389.984V-344.424M1689.33 -344.424V-298.863M1689.33 -298.863V-253.303M1689.33 -253.303V-207.742M1689.33 -207.742V-162.182M1689.33 -162.182V-116.621M1689.33 -116.621V-71.0607M1689.33 -71.0607V-25.5002M1689.33 -25.5002V20.0604M1689.33 20.0604V65.6209M1689.33 65.6209V111.181M1689.33 111.181V156.742M1689.33 156.742V202.303M1689.33 202.303V247.863M1689.33 247.863V293.424M1689.33 293.424V338.984M1689.33 338.984V384.545" stroke="url(#paint0_radial_77_1271)" stroke-opacity="0.3" stroke-width="0.569506"/>
</g>
<g style="mix-blend-mode:soft-light" opacity="0.8">
<path d="M-133.09 -312.532V-298.864M-133.09 -298.864V-285.196M-133.09 -298.864H-146.758M-133.09 -298.864H-119.422M-133.09 51.9519V65.6201M-133.09 65.6201V79.2882M-133.09 65.6201H-146.758M-133.09 65.6201H-119.422M-133.09 416.436V430.104M-133.09 430.104V443.772M-133.09 430.104H-146.758M-133.09 430.104H-119.422M231.395 -312.532V-298.864M231.395 -298.864V-285.196M231.395 -298.864H217.727M231.395 -298.864H245.063M231.395 51.9519V65.6201M231.395 65.6201V79.2882M231.395 65.6201H217.727M231.395 65.6201H245.063M231.395 416.436V430.104M231.395 430.104V443.772M231.395 430.104H217.727M231.395 430.104H245.063M595.879 -312.532V-298.864M595.879 -298.864V-285.196M595.879 -298.864H582.211M595.879 -298.864H609.547M595.879 51.9519V65.6201M595.879 65.6201V79.2882M595.879 65.6201H582.211M595.879 65.6201H609.547M595.879 416.436V430.104M595.879 430.104V443.772M595.879 430.104H582.211M595.879 430.104H609.547M960.363 -312.532V-298.864M960.363 -298.864V-285.196M960.363 -298.864H946.695M960.363 -298.864H974.032M960.363 51.9519V65.6201M960.363 65.6201V79.2882M960.363 65.6201H946.695M960.363 65.6201H974.032M960.363 416.436V430.104M960.363 430.104V443.772M960.363 430.104H946.695M960.363 430.104H974.032M1324.85 -312.532V-298.864M1324.85 -298.864V-285.196M1324.85 -298.864H1311.18M1324.85 -298.864H1338.52M1324.85 51.9519V65.6201M1324.85 65.6201V79.2882M1324.85 65.6201H1311.18M1324.85 65.6201H1338.52M1324.85 416.436V430.104M1324.85 430.104V443.772M1324.85 430.104H1311.18M1324.85 430.104H1338.52M1689.33 -312.532V-298.864M1689.33 -298.864V-285.196M1689.33 -298.864H1675.66M1689.33 -298.864H1703M1689.33 51.9519V65.6201M1689.33 65.6201V79.2882M1689.33 65.6201H1675.66M1689.33 65.6201H1703M1689.33 416.436V430.104M1689.33 430.104V443.772M1689.33 430.104H1675.66M1689.33 430.104H1703M-133.09 -494.774V-481.106M-133.09 -481.106V-467.438M-133.09 -481.106H-146.758M-133.09 -481.106H-119.422M-133.09 -130.29V-116.622M-133.09 -116.622V-102.954M-133.09 -116.622H-146.758M-133.09 -116.622H-119.422M-133.09 234.194V247.862M-133.09 247.862V261.53M-133.09 247.862H-146.758M-133.09 247.862H-119.422M231.395 -494.774V-481.106M231.395 -481.106V-467.438M231.395 -481.106H217.727M231.395 -481.106H245.063M231.395 -130.29V-116.622M231.395 -116.622V-102.954M231.395 -116.622H217.727M231.395 -116.622H245.063M231.395 234.194V247.862M231.395 247.862V261.53M231.395 247.862H217.727M231.395 247.862H245.063M595.879 -494.774V-481.106M595.879 -481.106V-467.438M595.879 -481.106H582.211M595.879 -481.106H609.547M595.879 -130.29V-116.622M595.879 -116.622V-102.954M595.879 -116.622H582.211M595.879 -116.622H609.547M595.879 234.194V247.862M595.879 247.862V261.53M595.879 247.862H582.211M595.879 247.862H609.547M960.363 -494.774V-481.106M960.363 -481.106V-467.438M960.363 -481.106H946.695M960.363 -481.106H974.032M960.363 -130.29V-116.622M960.363 -116.622V-102.954M960.363 -116.622H946.695M960.363 -116.622H974.032M960.363 234.194V247.862M960.363 247.862V261.53M960.363 247.862H946.695M960.363 247.862H974.032M1324.85 -494.774V-481.106M1324.85 -481.106V-467.438M1324.85 -481.106H1311.18M1324.85 -481.106H1338.52M1324.85 -130.29V-116.622M1324.85 -116.622V-102.954M1324.85 -116.622H1311.18M1324.85 -116.622H1338.52M1324.85 234.194V247.862M1324.85 247.862V261.53M1324.85 247.862H1311.18M1324.85 247.862H1338.52M1689.33 -494.774V-481.106M1689.33 -481.106V-467.438M1689.33 -481.106H1675.66M1689.33 -481.106H1703M1689.33 -130.29V-116.622M1689.33 -116.622V-102.954M1689.33 -116.622H1675.66M1689.33 -116.622H1703M1689.33 234.194V247.862M1689.33 247.862V261.53M1689.33 247.862H1675.66M1689.33 247.862H1703M-315.332 -312.532V-298.864M-315.332 -298.864V-285.196M-315.332 -298.864H-329M-315.332 -298.864H-301.664M-315.332 51.9519V65.6201M-315.332 65.6201V79.2882M-315.332 65.6201H-329M-315.332 65.6201H-301.664M-315.332 416.436V430.104M-315.332 430.104V443.772M-315.332 430.104H-329M-315.332 430.104H-301.664M49.1525 -312.532V-298.864M49.1525 -298.864V-285.196M49.1525 -298.864H35.4844M49.1525 -298.864H62.8207M49.1525 51.9519V65.6201M49.1525 65.6201V79.2882M49.1525 65.6201H35.4844M49.1525 65.6201H62.8207M49.1525 416.436V430.104M49.1525 430.104V443.772M49.1525 430.104H35.4844M49.1525 430.104H62.8207M413.637 -312.532V-298.864M413.637 -298.864V-285.196M413.637 -298.864H399.969M413.637 -298.864H427.305M413.637 51.9519V65.6201M413.637 65.6201V79.2882M413.637 65.6201H399.969M413.637 65.6201H427.305M413.637 416.436V430.104M413.637 430.104V443.772M413.637 430.104H399.969M413.637 430.104H427.305M778.121 -312.532V-298.864M778.121 -298.864V-285.196M778.121 -298.864H764.453M778.121 -298.864H791.789M778.121 51.9519V65.6201M778.121 65.6201V79.2882M778.121 65.6201H764.453M778.121 65.6201H791.789M778.121 416.436V430.104M778.121 430.104V443.772M778.121 430.104H764.453M778.121 430.104H791.789M1142.61 -312.532V-298.864M1142.61 -298.864V-285.196M1142.61 -298.864H1128.94M1142.61 -298.864H1156.27M1142.61 51.9519V65.6201M1142.61 65.6201V79.2882M1142.61 65.6201H1128.94M1142.61 65.6201H1156.27M1142.61 416.436V430.104M1142.61 430.104V443.772M1142.61 430.104H1128.94M1142.61 430.104H1156.27M1507.09 -312.532V-298.864M1507.09 -298.864V-285.196M1507.09 -298.864H1493.42M1507.09 -298.864H1520.76M1507.09 51.9519V65.6201M1507.09 65.6201V79.2882M1507.09 65.6201H1493.42M1507.09 65.6201H1520.76M1507.09 416.436V430.104M1507.09 430.104V443.772M1507.09 430.104H1493.42M1507.09 430.104H1520.76M-315.332 -494.774V-481.106M-315.332 -481.106V-467.438M-315.332 -481.106H-329M-315.332 -481.106H-301.664M-315.332 -130.29V-116.622M-315.332 -116.622V-102.954M-315.332 -116.622H-329M-315.332 -116.622H-301.664M-315.332 234.194V247.862M-315.332 247.862V261.53M-315.332 247.862H-329M-315.332 247.862H-301.664M49.1525 -494.774V-481.106M49.1525 -481.106V-467.438M49.1525 -481.106H35.4844M49.1525 -481.106H62.8207M49.1525 -130.29V-116.622M49.1525 -116.622V-102.954M49.1525 -116.622H35.4844M49.1525 -116.622H62.8207M49.1525 234.194V247.862M49.1525 247.862V261.53M49.1525 247.862H35.4844M49.1525 247.862H62.8207M413.637 -494.774V-481.106M413.637 -481.106V-467.438M413.637 -481.106H399.969M413.637 -481.106H427.305M413.637 -130.29V-116.622M413.637 -116.622V-102.954M413.637 -116.622H399.969M413.637 -116.622H427.305M413.637 234.194V247.862M413.637 247.862V261.53M413.637 247.862H399.969M413.637 247.862H427.305M778.121 -494.774V-481.106M778.121 -481.106V-467.438M778.121 -481.106H764.453M778.121 -481.106H791.789M778.121 -130.29V-116.622M778.121 -116.622V-102.954M778.121 -116.622H764.453M778.121 -116.622H791.789M778.121 234.194V247.862M778.121 247.862V261.53M778.121 247.862H764.453M778.121 247.862H791.789M1142.61 -494.774V-481.106M1142.61 -481.106V-467.438M1142.61 -481.106H1128.94M1142.61 -481.106H1156.27M1142.61 -130.29V-116.622M1142.61 -116.622V-102.954M1142.61 -116.622H1128.94M1142.61 -116.622H1156.27M1142.61 234.194V247.862M1142.61 247.862V261.53M1142.61 247.862H1128.94M1142.61 247.862H1156.27M1507.09 -494.774V-481.106M1507.09 -481.106V-467.438M1507.09 -481.106H1493.42M1507.09 -481.106H1520.76M1507.09 -130.29V-116.622M1507.09 -116.622V-102.954M1507.09 -116.622H1493.42M1507.09 -116.622H1520.76M1507.09 234.194V247.862M1507.09 247.862V261.53M1507.09 247.862H1493.42M1507.09 247.862H1520.76" stroke="url(#paint1_radial_77_1271)" stroke-opacity="0.3" stroke-width="1.13901"/>
</g>
</g>
<path d="M0 0V1H1217V0V-1H0V0ZM1217 40V39H0V40V41H1217V40Z" fill="white" fill-opacity="0.2" mask="url(#path-1-inside-1_77_1271)"/>
<defs>
<radialGradient id="paint0_radial_77_1271" cx="0" cy="0" r="1" gradientUnits="userSpaceOnUse" gradientTransform="translate(687 -25.5002) rotate(90) scale(455.605 1002.33)">
<stop stop-color="white"/>
<stop offset="1" stop-color="white" stop-opacity="0"/>
</radialGradient>
<radialGradient id="paint1_radial_77_1271" cx="0" cy="0" r="1" gradientUnits="userSpaceOnUse" gradientTransform="translate(687 -25.501) rotate(90) scale(469.273 1016)">
<stop stop-color="white"/>
<stop offset="1" stop-color="white" stop-opacity="0"/>
</radialGradient>
<clipPath id="clip0_77_1271">
<path d="M0 0H1217V40H0V0Z" fill="white"/>
</clipPath>
</defs>
</svg>
