<svg width="32" height="32" viewBox="0 0 32 32" fill="none" xmlns="http://www.w3.org/2000/svg">
<path d="M9.40181 21.3332C5.50168 20.1342 2.66663 16.5031 2.66663 12.2098C2.66663 6.93916 6.93928 2.6665 12.2099 2.6665C16.5032 2.6665 20.1343 5.50156 21.3333 9.40169" stroke="#FB9B00" stroke-width="1.5" stroke-linecap="round"/>
<path d="M8.59259 13.3333C8.21873 12.7856 8 12.1228 8 11.4087C8 9.52613 9.5201 8 11.3952 8C12.1157 8 12.7838 8.2253 13.3333 8.60956" stroke="#FB9B00" stroke-width="1.5" stroke-linecap="round"/>
<path d="M12.4126 12.5044C14.3996 10.3646 29.3457 15.6064 29.3333 17.5202C29.3193 19.6904 23.4965 20.3581 21.8825 20.8109C20.912 21.0832 20.6521 21.3622 20.4283 22.38C19.4147 26.9892 18.9059 29.2818 17.7461 29.333C15.8975 29.4147 10.4734 14.5927 12.4126 12.5044Z" stroke="#FB9B00" stroke-width="1.5"/>
</svg>
