<svg width="32" height="32" viewBox="0 0 32 32" fill="none" xmlns="http://www.w3.org/2000/svg">
<path d="M15.9977 2.6665C12.1984 2.6665 9.73497 5.35849 6.82153 6.33971C5.63691 6.73868 5.04459 6.93816 4.80489 7.21937C4.56518 7.50058 4.49498 7.9115 4.3546 8.73335C2.85234 17.5278 6.13587 25.6585 13.9667 28.8231C14.8081 29.1632 15.2288 29.3332 16.0019 29.3332C16.775 29.3332 17.1957 29.1631 18.037 28.8231C25.8673 25.6584 29.1477 17.5278 27.645 8.73334C27.5046 7.91136 27.4343 7.50036 27.1946 7.21915C26.9548 6.93794 26.3626 6.73857 25.178 6.33982C22.2634 5.3587 19.7972 2.6665 15.9977 2.6665Z" stroke="#BB3EFF" stroke-width="1.5" stroke-linecap="round" stroke-linejoin="round"/>
<path d="M16 21.3335C16.1861 21.3335 16.3592 21.2487 16.7052 21.0791L19.4869 19.7159C20.7179 19.1127 21.3333 18.8111 21.3333 18.3335V12.3335M16 21.3335C15.8139 21.3335 15.6408 21.2487 15.2947 21.0791L12.513 19.7159C11.2821 19.1127 10.6667 18.8111 10.6667 18.3335V12.3335M16 21.3335V15.3335M21.3333 12.3335C21.3333 11.8559 20.7179 11.5543 19.4869 10.9511L16.7052 9.58789C16.3592 9.41829 16.1861 9.3335 16 9.3335C15.8139 9.3335 15.6408 9.41829 15.2947 9.58789L12.513 10.9511C11.2821 11.5543 10.6667 11.8559 10.6667 12.3335M21.3333 12.3335C21.3333 12.8111 20.7179 13.1127 19.4869 13.7159L16.7052 15.0791C16.3592 15.2487 16.1861 15.3335 16 15.3335M10.6667 12.3335C10.6667 12.8111 11.2821 13.1127 12.513 13.7159L15.2947 15.0791C15.6408 15.2487 15.8139 15.3335 16 15.3335" stroke="#BB3EFF" stroke-width="1.5" stroke-linejoin="round"/>
</svg>
