<svg width="32" height="32" viewBox="0 0 32 32" fill="none" xmlns="http://www.w3.org/2000/svg">
<path d="M13.3333 9.3689C13.9773 5.56414 17.2886 2.6665 21.2766 2.6665C25.7262 2.6665 29.3333 6.2736 29.3333 10.7232C29.3333 14.7112 26.4357 18.0225 22.6309 18.6665" stroke="#BB3EFF" stroke-width="1.5" stroke-linecap="round" stroke-linejoin="round"/>
<path d="M10.6667 29.3335C15.085 29.3335 18.6667 25.7518 18.6667 21.3335C18.6667 16.9152 15.085 13.3335 10.6667 13.3335C6.24841 13.3335 2.66669 16.9152 2.66669 21.3335C2.66669 25.7518 6.24841 29.3335 10.6667 29.3335Z" stroke="#BB3EFF" stroke-width="1.5" stroke-linecap="round" stroke-linejoin="round"/>
<path d="M2.66669 12C2.66669 7.57714 6.24383 4 10.6667 4L9.52383 6.28571" stroke="#BB3EFF" stroke-width="1.5" stroke-linecap="round" stroke-linejoin="round"/>
<path d="M29.3333 20C29.3333 24.4229 25.7562 28 21.3333 28L22.4762 25.7143" stroke="#BB3EFF" stroke-width="1.5" stroke-linecap="round" stroke-linejoin="round"/>
</svg>
