<svg width="24" height="24" viewBox="0 0 24 24" fill="none" xmlns="http://www.w3.org/2000/svg">
<path d="M21.25 5.5C20.8358 5.5 20.5 5.16421 20.5 4.75C20.5 4.33579 20.8358 4 21.25 4C21.6642 4 22 4.33579 22 4.75C22 5.16421 21.6642 5.5 21.25 5.5ZM21.25 5.5V9.25C21.25 9.94778 21.25 10.2967 21.1639 10.5806C20.97 11.2198 20.4698 11.72 19.8306 11.9139C19.5467 12 19.1978 12 18.5 12" stroke="#FB9B00" stroke-width="1.5" stroke-linejoin="round"/>
<path d="M2.75 18.5C3.16421 18.5 3.5 18.8358 3.5 19.25C3.5 19.6642 3.16421 20 2.75 20C2.33579 20 2 19.6642 2 19.25C2 18.8358 2.33579 18.5 2.75 18.5ZM2.75 18.5L2.75 14.75C2.75 14.0522 2.75 13.7033 2.83612 13.4194C3.03002 12.7802 3.53023 12.28 4.16943 12.0861C4.45333 12 4.80222 12 5.5 12" stroke="#FB9B00" stroke-width="1.5" stroke-linejoin="round"/>
<path d="M5.5 2.75C5.5 3.16421 5.16421 3.5 4.75 3.5C4.33579 3.5 4 3.16421 4 2.75C4 2.33579 4.33579 2 4.75 2C5.16421 2 5.5 2.33579 5.5 2.75ZM5.5 2.75L9.25 2.75C9.94778 2.75 10.2967 2.75 10.5806 2.83612C11.2198 3.03002 11.72 3.53023 11.9139 4.16943C12 4.45333 12 4.80222 12 5.5" stroke="#FB9B00" stroke-width="1.5" stroke-linejoin="round"/>
<path d="M18.5 21.25C18.5 20.8358 18.8358 20.5 19.25 20.5C19.6642 20.5 20 20.8358 20 21.25C20 21.6642 19.6642 22 19.25 22C18.8358 22 18.5 21.6642 18.5 21.25ZM18.5 21.25L14.75 21.25C14.0522 21.25 13.7033 21.25 13.4194 21.1639C12.7802 20.97 12.28 20.4698 12.0861 19.8306C12 19.5467 12 19.1978 12 18.5" stroke="#FB9B00" stroke-width="1.5" stroke-linejoin="round"/>
<path d="M5.5481 11.9521C5.5481 8.88802 5.5481 7.35595 6.5 6.40405C7.4519 5.45215 8.98397 5.45215 12.0481 5.45215C15.1122 5.45215 16.6443 5.45215 17.5962 6.40405C18.5481 7.35595 18.5481 8.88802 18.5481 11.9521C18.5481 15.0163 18.5481 16.5483 17.5962 17.5002C16.6443 18.4521 15.1122 18.4521 12.0481 18.4521C8.98397 18.4521 7.4519 18.4521 6.5 17.5002C5.5481 16.5483 5.5481 15.0163 5.5481 11.9521Z" stroke="#FB9B00" stroke-width="1.5" stroke-linejoin="round"/>
<path d="M12.5 14.5L11.0393 9.97891C10.9475 9.69466 10.6657 9.5 10.3462 9.5C10.0266 9.5 9.7448 9.69466 9.65297 9.97891L8.19231 14.5M14.9999 9.5V14.5M8.73077 13H11.9615" stroke="#FB9B00" stroke-width="1.5" stroke-linecap="round" stroke-linejoin="round"/>
</svg>
