<svg width="1437" height="136" viewBox="0 0 1437 136" fill="none" xmlns="http://www.w3.org/2000/svg">
<g clip-path="url(#clip0_2_1863)">
<mask id="path-1-inside-1_2_1863" fill="white">
<path d="M0 0H1437V136H0V0Z"/>
</mask>
<g style="mix-blend-mode:soft-light" opacity="0.7">
<path d="M-269.771 -476.106H-315.332V-430.545M-269.771 -476.106V-430.545M-269.771 -476.106H-224.211M-269.771 -430.545H-315.332M-269.771 -430.545V-384.985M-269.771 -430.545H-224.211M-315.332 -430.545V-384.985M-269.771 -384.985H-315.332M-269.771 -384.985V-339.424M-269.771 -384.985H-224.211M-315.332 -384.985V-339.424M-269.771 -339.424H-315.332M-269.771 -339.424V-293.864M-269.771 -339.424H-224.211M-315.332 -339.424V-293.864M-269.771 -293.864H-315.332M-269.771 -293.864V-248.303M-269.771 -293.864H-224.211M-315.332 -293.864V-248.303M-269.771 -248.303H-315.332M-269.771 -248.303V-202.743M-269.771 -248.303H-224.211M-315.332 -248.303V-202.743M-269.771 -202.743H-315.332M-269.771 -202.743V-157.182M-269.771 -202.743H-224.211M-315.332 -202.743V-157.182M-269.771 -157.182H-315.332M-269.771 -157.182V-111.621M-269.771 -157.182H-224.211M-315.332 -157.182V-111.621M-269.771 -111.621H-315.332M-269.771 -111.621V-66.0609M-269.771 -111.621H-224.211M-315.332 -111.621V-66.0609M-269.771 -66.0609H-315.332M-269.771 -66.0609V-20.5004M-269.771 -66.0609H-224.211M-315.332 -66.0609V-20.5004M-269.771 -20.5004H-315.332M-269.771 -20.5004V25.0601M-269.771 -20.5004H-224.211M-315.332 -20.5004V25.0601M-269.771 25.0601H-315.332M-269.771 25.0601V70.6207M-269.771 25.0601H-224.211M-315.332 25.0601V70.6207M-269.771 70.6207H-315.332M-269.771 70.6207V116.181M-269.771 70.6207H-224.211M-315.332 70.6207V116.181M-269.771 116.181H-315.332M-269.771 116.181V161.742M-269.771 116.181H-224.211M-315.332 116.181V161.742M-269.771 161.742H-315.332M-269.771 161.742V207.302M-269.771 161.742H-224.211M-315.332 161.742V207.302M-269.771 207.302H-315.332M-269.771 207.302V252.863M-269.771 207.302H-224.211M-315.332 207.302V252.863M-269.771 252.863H-315.332M-269.771 252.863V298.423M-269.771 252.863H-224.211M-315.332 252.863V298.423M-269.771 298.423H-315.332M-269.771 298.423V343.984M-269.771 298.423H-224.211M-315.332 298.423V343.984M-269.771 343.984H-315.332M-269.771 343.984V389.544M-269.771 343.984H-224.211M-315.332 343.984V389.544M-269.771 389.544H-315.332M-269.771 389.544V435.105M-269.771 389.544H-224.211M-315.332 389.544V435.105H-269.771M-269.771 435.105H-224.211M-224.211 -476.106V-430.545M-224.211 -476.106H-178.65M-224.211 -430.545V-384.985M-224.211 -430.545H-178.65M-224.211 -384.985V-339.424M-224.211 -384.985H-178.65M-224.211 -339.424V-293.864M-224.211 -339.424H-178.65M-224.211 -293.864V-248.303M-224.211 -293.864H-178.65M-224.211 -248.303V-202.743M-224.211 -248.303H-178.65M-224.211 -202.743V-157.182M-224.211 -202.743H-178.65M-224.211 -157.182V-111.621M-224.211 -157.182H-178.65M-224.211 -111.621V-66.0609M-224.211 -111.621H-178.65M-224.211 -66.0609V-20.5004M-224.211 -66.0609H-178.65M-224.211 -20.5004V25.0601M-224.211 -20.5004H-178.65M-224.211 25.0601V70.6207M-224.211 25.0601H-178.65M-224.211 70.6207V116.181M-224.211 70.6207H-178.65M-224.211 116.181V161.742M-224.211 116.181H-178.65M-224.211 161.742V207.302M-224.211 161.742H-178.65M-224.211 207.302V252.863M-224.211 207.302H-178.65M-224.211 252.863V298.423M-224.211 252.863H-178.65M-224.211 298.423V343.984M-224.211 298.423H-178.65M-224.211 343.984V389.544M-224.211 343.984H-178.65M-224.211 389.544V435.105M-224.211 389.544H-178.65M-224.211 435.105H-178.65M-178.65 -476.106V-430.545M-178.65 -476.106H-133.09M-178.65 -430.545V-384.985M-178.65 -430.545H-133.09M-178.65 -384.985V-339.424M-178.65 -384.985H-133.09M-178.65 -339.424V-293.864M-178.65 -339.424H-133.09M-178.65 -293.864V-248.303M-178.65 -293.864H-133.09M-178.65 -248.303V-202.743M-178.65 -248.303H-133.09M-178.65 -202.743V-157.182M-178.65 -202.743H-133.09M-178.65 -157.182V-111.621M-178.65 -157.182H-133.09M-178.65 -111.621V-66.0609M-178.65 -111.621H-133.09M-178.65 -66.0609V-20.5004M-178.65 -66.0609H-133.09M-178.65 -20.5004V25.0601M-178.65 -20.5004H-133.09M-178.65 25.0601V70.6207M-178.65 25.0601H-133.09M-178.65 70.6207V116.181M-178.65 70.6207H-133.09M-178.65 116.181V161.742M-178.65 116.181H-133.09M-178.65 161.742V207.302M-178.65 161.742H-133.09M-178.65 207.302V252.863M-178.65 207.302H-133.09M-178.65 252.863V298.423M-178.65 252.863H-133.09M-178.65 298.423V343.984M-178.65 298.423H-133.09M-178.65 343.984V389.544M-178.65 343.984H-133.09M-178.65 389.544V435.105M-178.65 389.544H-133.09M-178.65 435.105H-133.09M-133.09 -476.106V-430.545M-133.09 -476.106H-87.5294M-133.09 -430.545V-384.985M-133.09 -430.545H-87.5294M-133.09 -384.985V-339.424M-133.09 -384.985H-87.5294M-133.09 -339.424V-293.864M-133.09 -339.424H-87.5294M-133.09 -293.864V-248.303M-133.09 -293.864H-87.5294M-133.09 -248.303V-202.743M-133.09 -248.303H-87.5294M-133.09 -202.743V-157.182M-133.09 -202.743H-87.5294M-133.09 -157.182V-111.621M-133.09 -157.182H-87.5294M-133.09 -111.621V-66.0609M-133.09 -111.621H-87.5294M-133.09 -66.0609V-20.5004M-133.09 -66.0609H-87.5294M-133.09 -20.5004V25.0601M-133.09 -20.5004H-87.5294M-133.09 25.0601V70.6207M-133.09 25.0601H-87.5294M-133.09 70.6207V116.181M-133.09 70.6207H-87.5294M-133.09 116.181V161.742M-133.09 116.181H-87.5294M-133.09 161.742V207.302M-133.09 161.742H-87.5294M-133.09 207.302V252.863M-133.09 207.302H-87.5294M-133.09 252.863V298.423M-133.09 252.863H-87.5294M-133.09 298.423V343.984M-133.09 298.423H-87.5294M-133.09 343.984V389.544M-133.09 343.984H-87.5294M-133.09 389.544V435.105M-133.09 389.544H-87.5294M-133.09 435.105H-87.5294M-87.5294 -476.106V-430.545M-87.5294 -476.106H-41.9688M-87.5294 -430.545V-384.985M-87.5294 -430.545H-41.9688M-87.5294 -384.985V-339.424M-87.5294 -384.985H-41.9688M-87.5294 -339.424V-293.864M-87.5294 -339.424H-41.9688M-87.5294 -293.864V-248.303M-87.5294 -293.864H-41.9688M-87.5294 -248.303V-202.743M-87.5294 -248.303H-41.9688M-87.5294 -202.743V-157.182M-87.5294 -202.743H-41.9688M-87.5294 -157.182V-111.621M-87.5294 -157.182H-41.9688M-87.5294 -111.621V-66.0609M-87.5294 -111.621H-41.9688M-87.5294 -66.0609V-20.5004M-87.5294 -66.0609H-41.9688M-87.5294 -20.5004V25.0601M-87.5294 -20.5004H-41.9688M-87.5294 25.0601V70.6207M-87.5294 25.0601H-41.9688M-87.5294 70.6207V116.181M-87.5294 70.6207H-41.9688M-87.5294 116.181V161.742M-87.5294 116.181H-41.9688M-87.5294 161.742V207.302M-87.5294 161.742H-41.9688M-87.5294 207.302V252.863M-87.5294 207.302H-41.9688M-87.5294 252.863V298.423M-87.5294 252.863H-41.9688M-87.5294 298.423V343.984M-87.5294 298.423H-41.9688M-87.5294 343.984V389.544M-87.5294 343.984H-41.9688M-87.5294 389.544V435.105M-87.5294 389.544H-41.9688M-87.5294 435.105H-41.9688M-41.9688 -476.106V-430.545M-41.9688 -476.106H3.59169M-41.9688 -430.545V-384.985M-41.9688 -430.545H3.59169M-41.9688 -384.985V-339.424M-41.9688 -384.985H3.59169M-41.9688 -339.424V-293.864M-41.9688 -339.424H3.59169M-41.9688 -293.864V-248.303M-41.9688 -293.864H3.59169M-41.9688 -248.303V-202.743M-41.9688 -248.303H3.59169M-41.9688 -202.743V-157.182M-41.9688 -202.743H3.59169M-41.9688 -157.182V-111.621M-41.9688 -157.182H3.59169M-41.9688 -111.621V-66.0609M-41.9688 -111.621H3.59169M-41.9688 -66.0609V-20.5004M-41.9688 -66.0609H3.59169M-41.9688 -20.5004V25.0601M-41.9688 -20.5004H3.59169M-41.9688 25.0601V70.6207M-41.9688 25.0601H3.59169M-41.9688 70.6207V116.181M-41.9688 70.6207H3.59169M-41.9688 116.181V161.742M-41.9688 116.181H3.59169M-41.9688 161.742V207.302M-41.9688 161.742H3.59169M-41.9688 207.302V252.863M-41.9688 207.302H3.59169M-41.9688 252.863V298.423M-41.9688 252.863H3.59169M-41.9688 298.423V343.984M-41.9688 298.423H3.59169M-41.9688 343.984V389.544M-41.9688 343.984H3.59169M-41.9688 389.544V435.105M-41.9688 389.544H3.59169M-41.9688 435.105H3.59169M3.59169 -476.106V-430.545M3.59169 -476.106H49.1522M3.59169 -430.545V-384.985M3.59169 -430.545H49.1522M3.59169 -384.985V-339.424M3.59169 -384.985H49.1522M3.59169 -339.424V-293.864M3.59169 -339.424H49.1522M3.59169 -293.864V-248.303M3.59169 -293.864H49.1522M3.59169 -248.303V-202.743M3.59169 -248.303H49.1522M3.59169 -202.743V-157.182M3.59169 -202.743H49.1522M3.59169 -157.182V-111.621M3.59169 -157.182H49.1522M3.59169 -111.621V-66.0609M3.59169 -111.621H49.1522M3.59169 -66.0609V-20.5004M3.59169 -66.0609H49.1522M3.59169 -20.5004V25.0601M3.59169 -20.5004H49.1522M3.59169 25.0601V70.6207M3.59169 25.0601H49.1522M3.59169 70.6207V116.181M3.59169 70.6207H49.1522M3.59169 116.181V161.742M3.59169 116.181H49.1522M3.59169 161.742V207.302M3.59169 161.742H49.1522M3.59169 207.302V252.863M3.59169 207.302H49.1522M3.59169 252.863V298.423M3.59169 252.863H49.1522M3.59169 298.423V343.984M3.59169 298.423H49.1522M3.59169 343.984V389.544M3.59169 343.984H49.1522M3.59169 389.544V435.105M3.59169 389.544H49.1522M3.59169 435.105H49.1522M49.1522 -476.106V-430.545M49.1522 -476.106H94.7128M49.1522 -430.545V-384.985M49.1522 -430.545H94.7128M49.1522 -384.985V-339.424M49.1522 -384.985H94.7128M49.1522 -339.424V-293.864M49.1522 -339.424H94.7128M49.1522 -293.864V-248.303M49.1522 -293.864H94.7128M49.1522 -248.303V-202.743M49.1522 -248.303H94.7128M49.1522 -202.743V-157.182M49.1522 -202.743H94.7128M49.1522 -157.182V-111.621M49.1522 -157.182H94.7128M49.1522 -111.621V-66.0609M49.1522 -111.621H94.7128M49.1522 -66.0609V-20.5004M49.1522 -66.0609H94.7128M49.1522 -20.5004V25.0601M49.1522 -20.5004H94.7128M49.1522 25.0601V70.6207M49.1522 25.0601H94.7128M49.1522 70.6207V116.181M49.1522 70.6207H94.7128M49.1522 116.181V161.742M49.1522 116.181H94.7128M49.1522 161.742V207.302M49.1522 161.742H94.7128M49.1522 207.302V252.863M49.1522 207.302H94.7128M49.1522 252.863V298.423M49.1522 252.863H94.7128M49.1522 298.423V343.984M49.1522 298.423H94.7128M49.1522 343.984V389.544M49.1522 343.984H94.7128M49.1522 389.544V435.105M49.1522 389.544H94.7128M49.1522 435.105H94.7128M94.7128 -476.106V-430.545M94.7128 -476.106H140.273M94.7128 -430.545V-384.985M94.7128 -430.545H140.273M94.7128 -384.985V-339.424M94.7128 -384.985H140.273M94.7128 -339.424V-293.864M94.7128 -339.424H140.273M94.7128 -293.864V-248.303M94.7128 -293.864H140.273M94.7128 -248.303V-202.743M94.7128 -248.303H140.273M94.7128 -202.743V-157.182M94.7128 -202.743H140.273M94.7128 -157.182V-111.621M94.7128 -157.182H140.273M94.7128 -111.621V-66.0609M94.7128 -111.621H140.273M94.7128 -66.0609V-20.5004M94.7128 -66.0609H140.273M94.7128 -20.5004V25.0601M94.7128 -20.5004H140.273M94.7128 25.0601V70.6207M94.7128 25.0601H140.273M94.7128 70.6207V116.181M94.7128 70.6207H140.273M94.7128 116.181V161.742M94.7128 116.181H140.273M94.7128 161.742V207.302M94.7128 161.742H140.273M94.7128 207.302V252.863M94.7128 207.302H140.273M94.7128 252.863V298.423M94.7128 252.863H140.273M94.7128 298.423V343.984M94.7128 298.423H140.273M94.7128 343.984V389.544M94.7128 343.984H140.273M94.7128 389.544V435.105M94.7128 389.544H140.273M94.7128 435.105H140.273M140.273 -476.106V-430.545M140.273 -476.106H185.834M140.273 -430.545V-384.985M140.273 -430.545H185.834M140.273 -384.985V-339.424M140.273 -384.985H185.834M140.273 -339.424V-293.864M140.273 -339.424H185.834M140.273 -293.864V-248.303M140.273 -293.864H185.834M140.273 -248.303V-202.743M140.273 -248.303H185.834M140.273 -202.743V-157.182M140.273 -202.743H185.834M140.273 -157.182V-111.621M140.273 -157.182H185.834M140.273 -111.621V-66.0609M140.273 -111.621H185.834M140.273 -66.0609V-20.5004M140.273 -66.0609H185.834M140.273 -20.5004V25.0601M140.273 -20.5004H185.834M140.273 25.0601V70.6207M140.273 25.0601H185.834M140.273 70.6207V116.181M140.273 70.6207H185.834M140.273 116.181V161.742M140.273 116.181H185.834M140.273 161.742V207.302M140.273 161.742H185.834M140.273 207.302V252.863M140.273 207.302H185.834M140.273 252.863V298.423M140.273 252.863H185.834M140.273 298.423V343.984M140.273 298.423H185.834M140.273 343.984V389.544M140.273 343.984H185.834M140.273 389.544V435.105M140.273 389.544H185.834M140.273 435.105H185.834M185.834 -476.106V-430.545M185.834 -476.106H231.394M185.834 -430.545V-384.985M185.834 -430.545H231.394M185.834 -384.985V-339.424M185.834 -384.985H231.394M185.834 -339.424V-293.864M185.834 -339.424H231.394M185.834 -293.864V-248.303M185.834 -293.864H231.394M185.834 -248.303V-202.743M185.834 -248.303H231.394M185.834 -202.743V-157.182M185.834 -202.743H231.394M185.834 -157.182V-111.621M185.834 -157.182H231.394M185.834 -111.621V-66.0609M185.834 -111.621H231.394M185.834 -66.0609V-20.5004M185.834 -66.0609H231.394M185.834 -20.5004V25.0601M185.834 -20.5004H231.394M185.834 25.0601V70.6207M185.834 25.0601H231.394M185.834 70.6207V116.181M185.834 70.6207H231.394M185.834 116.181V161.742M185.834 116.181H231.394M185.834 161.742V207.302M185.834 161.742H231.394M185.834 207.302V252.863M185.834 207.302H231.394M185.834 252.863V298.423M185.834 252.863H231.394M185.834 298.423V343.984M185.834 298.423H231.394M185.834 343.984V389.544M185.834 343.984H231.394M185.834 389.544V435.105M185.834 389.544H231.394M185.834 435.105H231.394M231.394 -476.106V-430.545M231.394 -476.106H276.955M231.394 -430.545V-384.985M231.394 -430.545H276.955M231.394 -384.985V-339.424M231.394 -384.985H276.955M231.394 -339.424V-293.864M231.394 -339.424H276.955M231.394 -293.864V-248.303M231.394 -293.864H276.955M231.394 -248.303V-202.743M231.394 -248.303H276.955M231.394 -202.743V-157.182M231.394 -202.743H276.955M231.394 -157.182V-111.621M231.394 -157.182H276.955M231.394 -111.621V-66.0609M231.394 -111.621H276.955M231.394 -66.0609V-20.5004M231.394 -66.0609H276.955M231.394 -20.5004V25.0601M231.394 -20.5004H276.955M231.394 25.0601V70.6207M231.394 25.0601H276.955M231.394 70.6207V116.181M231.394 70.6207H276.955M231.394 116.181V161.742M231.394 116.181H276.955M231.394 161.742V207.302M231.394 161.742H276.955M231.394 207.302V252.863M231.394 207.302H276.955M231.394 252.863V298.423M231.394 252.863H276.955M231.394 298.423V343.984M231.394 298.423H276.955M231.394 343.984V389.544M231.394 343.984H276.955M231.394 389.544V435.105M231.394 389.544H276.955M231.394 435.105H276.955M276.955 -476.106V-430.545M276.955 -476.106H322.515M276.955 -430.545V-384.985M276.955 -430.545H322.515M276.955 -384.985V-339.424M276.955 -384.985H322.515M276.955 -339.424V-293.864M276.955 -339.424H322.515M276.955 -293.864V-248.303M276.955 -293.864H322.515M276.955 -248.303V-202.743M276.955 -248.303H322.515M276.955 -202.743V-157.182M276.955 -202.743H322.515M276.955 -157.182V-111.621M276.955 -157.182H322.515M276.955 -111.621V-66.0609M276.955 -111.621H322.515M276.955 -66.0609V-20.5004M276.955 -66.0609H322.515M276.955 -20.5004V25.0601M276.955 -20.5004H322.515M276.955 25.0601V70.6207M276.955 25.0601H322.515M276.955 70.6207V116.181M276.955 70.6207H322.515M276.955 116.181V161.742M276.955 116.181H322.515M276.955 161.742V207.302M276.955 161.742H322.515M276.955 207.302V252.863M276.955 207.302H322.515M276.955 252.863V298.423M276.955 252.863H322.515M276.955 298.423V343.984M276.955 298.423H322.515M276.955 343.984V389.544M276.955 343.984H322.515M276.955 389.544V435.105M276.955 389.544H322.515M276.955 435.105H322.515M322.515 -476.106V-430.545M322.515 -476.106H368.076M322.515 -430.545V-384.985M322.515 -430.545H368.076M322.515 -384.985V-339.424M322.515 -384.985H368.076M322.515 -339.424V-293.864M322.515 -339.424H368.076M322.515 -293.864V-248.303M322.515 -293.864H368.076M322.515 -248.303V-202.743M322.515 -248.303H368.076M322.515 -202.743V-157.182M322.515 -202.743H368.076M322.515 -157.182V-111.621M322.515 -157.182H368.076M322.515 -111.621V-66.0609M322.515 -111.621H368.076M322.515 -66.0609V-20.5004M322.515 -66.0609H368.076M322.515 -20.5004V25.0601M322.515 -20.5004H368.076M322.515 25.0601V70.6207M322.515 25.0601H368.076M322.515 70.6207V116.181M322.515 70.6207H368.076M322.515 116.181V161.742M322.515 116.181H368.076M322.515 161.742V207.302M322.515 161.742H368.076M322.515 207.302V252.863M322.515 207.302H368.076M322.515 252.863V298.423M322.515 252.863H368.076M322.515 298.423V343.984M322.515 298.423H368.076M322.515 343.984V389.544M322.515 343.984H368.076M322.515 389.544V435.105M322.515 389.544H368.076M322.515 435.105H368.076M368.076 -476.106V-430.545M368.076 -476.106H413.636M368.076 -430.545V-384.985M368.076 -430.545H413.636M368.076 -384.985V-339.424M368.076 -384.985H413.636M368.076 -339.424V-293.864M368.076 -339.424H413.636M368.076 -293.864V-248.303M368.076 -293.864H413.636M368.076 -248.303V-202.743M368.076 -248.303H413.636M368.076 -202.743V-157.182M368.076 -202.743H413.636M368.076 -157.182V-111.621M368.076 -157.182H413.636M368.076 -111.621V-66.0609M368.076 -111.621H413.636M368.076 -66.0609V-20.5004M368.076 -66.0609H413.636M368.076 -20.5004V25.0601M368.076 -20.5004H413.636M368.076 25.0601V70.6207M368.076 25.0601H413.636M368.076 70.6207V116.181M368.076 70.6207H413.636M368.076 116.181V161.742M368.076 116.181H413.636M368.076 161.742V207.302M368.076 161.742H413.636M368.076 207.302V252.863M368.076 207.302H413.636M368.076 252.863V298.423M368.076 252.863H413.636M368.076 298.423V343.984M368.076 298.423H413.636M368.076 343.984V389.544M368.076 343.984H413.636M368.076 389.544V435.105M368.076 389.544H413.636M368.076 435.105H413.636M413.636 -476.106V-430.545M413.636 -476.106H459.197M413.636 -430.545V-384.985M413.636 -430.545H459.197M413.636 -384.985V-339.424M413.636 -384.985H459.197M413.636 -339.424V-293.864M413.636 -339.424H459.197M413.636 -293.864V-248.303M413.636 -293.864H459.197M413.636 -248.303V-202.743M413.636 -248.303H459.197M413.636 -202.743V-157.182M413.636 -202.743H459.197M413.636 -157.182V-111.621M413.636 -157.182H459.197M413.636 -111.621V-66.0609M413.636 -111.621H459.197M413.636 -66.0609V-20.5004M413.636 -66.0609H459.197M413.636 -20.5004V25.0601M413.636 -20.5004H459.197M413.636 25.0601V70.6207M413.636 25.0601H459.197M413.636 70.6207V116.181M413.636 70.6207H459.197M413.636 116.181V161.742M413.636 116.181H459.197M413.636 161.742V207.302M413.636 161.742H459.197M413.636 207.302V252.863M413.636 207.302H459.197M413.636 252.863V298.423M413.636 252.863H459.197M413.636 298.423V343.984M413.636 298.423H459.197M413.636 343.984V389.544M413.636 343.984H459.197M413.636 389.544V435.105M413.636 389.544H459.197M413.636 435.105H459.197M459.197 -476.106V-430.545M459.197 -476.106H504.758M459.197 -430.545V-384.985M459.197 -430.545H504.758M459.197 -384.985V-339.424M459.197 -384.985H504.758M459.197 -339.424V-293.864M459.197 -339.424H504.758M459.197 -293.864V-248.303M459.197 -293.864H504.758M459.197 -248.303V-202.743M459.197 -248.303H504.758M459.197 -202.743V-157.182M459.197 -202.743H504.758M459.197 -157.182V-111.621M459.197 -157.182H504.758M459.197 -111.621V-66.0609M459.197 -111.621H504.758M459.197 -66.0609V-20.5004M459.197 -66.0609H504.758M459.197 -20.5004V25.0601M459.197 -20.5004H504.758M459.197 25.0601V70.6207M459.197 25.0601H504.758M459.197 70.6207V116.181M459.197 70.6207H504.758M459.197 116.181V161.742M459.197 116.181H504.758M459.197 161.742V207.302M459.197 161.742H504.758M459.197 207.302V252.863M459.197 207.302H504.758M459.197 252.863V298.423M459.197 252.863H504.758M459.197 298.423V343.984M459.197 298.423H504.758M459.197 343.984V389.544M459.197 343.984H504.758M459.197 389.544V435.105M459.197 389.544H504.758M459.197 435.105H504.758M504.758 -476.106V-430.545M504.758 -476.106H550.318M504.758 -430.545V-384.985M504.758 -430.545H550.318M504.758 -384.985V-339.424M504.758 -384.985H550.318M504.758 -339.424V-293.864M504.758 -339.424H550.318M504.758 -293.864V-248.303M504.758 -293.864H550.318M504.758 -248.303V-202.743M504.758 -248.303H550.318M504.758 -202.743V-157.182M504.758 -202.743H550.318M504.758 -157.182V-111.621M504.758 -157.182H550.318M504.758 -111.621V-66.0609M504.758 -111.621H550.318M504.758 -66.0609V-20.5004M504.758 -66.0609H550.318M504.758 -20.5004V25.0601M504.758 -20.5004H550.318M504.758 25.0601V70.6207M504.758 25.0601H550.318M504.758 70.6207V116.181M504.758 70.6207H550.318M504.758 116.181V161.742M504.758 116.181H550.318M504.758 161.742V207.302M504.758 161.742H550.318M504.758 207.302V252.863M504.758 207.302H550.318M504.758 252.863V298.423M504.758 252.863H550.318M504.758 298.423V343.984M504.758 298.423H550.318M504.758 343.984V389.544M504.758 343.984H550.318M504.758 389.544V435.105M504.758 389.544H550.318M504.758 435.105H550.318M550.318 -476.106V-430.545M550.318 -476.106H595.879M550.318 -430.545V-384.985M550.318 -430.545H595.879M550.318 -384.985V-339.424M550.318 -384.985H595.879M550.318 -339.424V-293.864M550.318 -339.424H595.879M550.318 -293.864V-248.303M550.318 -293.864H595.879M550.318 -248.303V-202.743M550.318 -248.303H595.879M550.318 -202.743V-157.182M550.318 -202.743H595.879M550.318 -157.182V-111.621M550.318 -157.182H595.879M550.318 -111.621V-66.0609M550.318 -111.621H595.879M550.318 -66.0609V-20.5004M550.318 -66.0609H595.879M550.318 -20.5004V25.0601M550.318 -20.5004H595.879M550.318 25.0601V70.6207M550.318 25.0601H595.879M550.318 70.6207V116.181M550.318 70.6207H595.879M550.318 116.181V161.742M550.318 116.181H595.879M550.318 161.742V207.302M550.318 161.742H595.879M550.318 207.302V252.863M550.318 207.302H595.879M550.318 252.863V298.423M550.318 252.863H595.879M550.318 298.423V343.984M550.318 298.423H595.879M550.318 343.984V389.544M550.318 343.984H595.879M550.318 389.544V435.105M550.318 389.544H595.879M550.318 435.105H595.879M595.879 -476.106V-430.545M595.879 -476.106H641.439M595.879 -430.545V-384.985M595.879 -430.545H641.439M595.879 -384.985V-339.424M595.879 -384.985H641.439M595.879 -339.424V-293.864M595.879 -339.424H641.439M595.879 -293.864V-248.303M595.879 -293.864H641.439M595.879 -248.303V-202.743M595.879 -248.303H641.439M595.879 -202.743V-157.182M595.879 -202.743H641.439M595.879 -157.182V-111.621M595.879 -157.182H641.439M595.879 -111.621V-66.0609M595.879 -111.621H641.439M595.879 -66.0609V-20.5004M595.879 -66.0609H641.439M595.879 -20.5004V25.0601M595.879 -20.5004H641.439M595.879 25.0601V70.6207M595.879 25.0601H641.439M595.879 70.6207V116.181M595.879 70.6207H641.439M595.879 116.181V161.742M595.879 116.181H641.439M595.879 161.742V207.302M595.879 161.742H641.439M595.879 207.302V252.863M595.879 207.302H641.439M595.879 252.863V298.423M595.879 252.863H641.439M595.879 298.423V343.984M595.879 298.423H641.439M595.879 343.984V389.544M595.879 343.984H641.439M595.879 389.544V435.105M595.879 389.544H641.439M595.879 435.105H641.439M641.439 -476.106V-430.545M641.439 -476.106H687M641.439 -430.545V-384.985M641.439 -430.545H687M641.439 -384.985V-339.424M641.439 -384.985H687M641.439 -339.424V-293.864M641.439 -339.424H687M641.439 -293.864V-248.303M641.439 -293.864H687M641.439 -248.303V-202.743M641.439 -248.303H687M641.439 -202.743V-157.182M641.439 -202.743H687M641.439 -157.182V-111.621M641.439 -157.182H687M641.439 -111.621V-66.0609M641.439 -111.621H687M641.439 -66.0609V-20.5004M641.439 -66.0609H687M641.439 -20.5004V25.0601M641.439 -20.5004H687M641.439 25.0601V70.6207M641.439 25.0601H687M641.439 70.6207V116.181M641.439 70.6207H687M641.439 116.181V161.742M641.439 116.181H687M641.439 161.742V207.302M641.439 161.742H687M641.439 207.302V252.863M641.439 207.302H687M641.439 252.863V298.423M641.439 252.863H687M641.439 298.423V343.984M641.439 298.423H687M641.439 343.984V389.544M641.439 343.984H687M641.439 389.544V435.105M641.439 389.544H687M641.439 435.105H687M687 -476.106V-430.545M687 -476.106H732.56M687 -430.545V-384.985M687 -430.545H732.56M687 -384.985V-339.424M687 -384.985H732.56M687 -339.424V-293.864M687 -339.424H732.56M687 -293.864V-248.303M687 -293.864H732.56M687 -248.303V-202.743M687 -248.303H732.56M687 -202.743V-157.182M687 -202.743H732.56M687 -157.182V-111.621M687 -157.182H732.56M687 -111.621V-66.0609M687 -111.621H732.56M687 -66.0609V-20.5004M687 -66.0609H732.56M687 -20.5004V25.0601M687 -20.5004H732.56M687 25.0601V70.6207M687 25.0601H732.56M687 70.6207V116.181M687 70.6207H732.56M687 116.181V161.742M687 116.181H732.56M687 161.742V207.302M687 161.742H732.56M687 207.302V252.863M687 207.302H732.56M687 252.863V298.423M687 252.863H732.56M687 298.423V343.984M687 298.423H732.56M687 343.984V389.544M687 343.984H732.56M687 389.544V435.105M687 389.544H732.56M687 435.105H732.56M732.56 -476.106V-430.545M732.56 -476.106H778.121M732.56 -430.545V-384.985M732.56 -430.545H778.121M732.56 -384.985V-339.424M732.56 -384.985H778.121M732.56 -339.424V-293.864M732.56 -339.424H778.121M732.56 -293.864V-248.303M732.56 -293.864H778.121M732.56 -248.303V-202.743M732.56 -248.303H778.121M732.56 -202.743V-157.182M732.56 -202.743H778.121M732.56 -157.182V-111.621M732.56 -157.182H778.121M732.56 -111.621V-66.0609M732.56 -111.621H778.121M732.56 -66.0609V-20.5004M732.56 -66.0609H778.121M732.56 -20.5004V25.0601M732.56 -20.5004H778.121M732.56 25.0601V70.6207M732.56 25.0601H778.121M732.56 70.6207V116.181M732.56 70.6207H778.121M732.56 116.181V161.742M732.56 116.181H778.121M732.56 161.742V207.302M732.56 161.742H778.121M732.56 207.302V252.863M732.56 207.302H778.121M732.56 252.863V298.423M732.56 252.863H778.121M732.56 298.423V343.984M732.56 298.423H778.121M732.56 343.984V389.544M732.56 343.984H778.121M732.56 389.544V435.105M732.56 389.544H778.121M732.56 435.105H778.121M778.121 -476.106V-430.545M778.121 -476.106H823.681M778.121 -430.545V-384.985M778.121 -430.545H823.681M778.121 -384.985V-339.424M778.121 -384.985H823.681M778.121 -339.424V-293.864M778.121 -339.424H823.681M778.121 -293.864V-248.303M778.121 -293.864H823.681M778.121 -248.303V-202.743M778.121 -248.303H823.681M778.121 -202.743V-157.182M778.121 -202.743H823.681M778.121 -157.182V-111.621M778.121 -157.182H823.681M778.121 -111.621V-66.0609M778.121 -111.621H823.681M778.121 -66.0609V-20.5004M778.121 -66.0609H823.681M778.121 -20.5004V25.0601M778.121 -20.5004H823.681M778.121 25.0601V70.6207M778.121 25.0601H823.681M778.121 70.6207V116.181M778.121 70.6207H823.681M778.121 116.181V161.742M778.121 116.181H823.681M778.121 161.742V207.302M778.121 161.742H823.681M778.121 207.302V252.863M778.121 207.302H823.681M778.121 252.863V298.423M778.121 252.863H823.681M778.121 298.423V343.984M778.121 298.423H823.681M778.121 343.984V389.544M778.121 343.984H823.681M778.121 389.544V435.105M778.121 389.544H823.681M778.121 435.105H823.681M823.681 -476.106V-430.545M823.681 -476.106H869.242M823.681 -430.545V-384.985M823.681 -430.545H869.242M823.681 -384.985V-339.424M823.681 -384.985H869.242M823.681 -339.424V-293.864M823.681 -339.424H869.242M823.681 -293.864V-248.303M823.681 -293.864H869.242M823.681 -248.303V-202.743M823.681 -248.303H869.242M823.681 -202.743V-157.182M823.681 -202.743H869.242M823.681 -157.182V-111.621M823.681 -157.182H869.242M823.681 -111.621V-66.0609M823.681 -111.621H869.242M823.681 -66.0609V-20.5004M823.681 -66.0609H869.242M823.681 -20.5004V25.0601M823.681 -20.5004H869.242M823.681 25.0601V70.6207M823.681 25.0601H869.242M823.681 70.6207V116.181M823.681 70.6207H869.242M823.681 116.181V161.742M823.681 116.181H869.242M823.681 161.742V207.302M823.681 161.742H869.242M823.681 207.302V252.863M823.681 207.302H869.242M823.681 252.863V298.423M823.681 252.863H869.242M823.681 298.423V343.984M823.681 298.423H869.242M823.681 343.984V389.544M823.681 343.984H869.242M823.681 389.544V435.105M823.681 389.544H869.242M823.681 435.105H869.242M869.242 -476.106V-430.545M869.242 -476.106H914.802M869.242 -430.545V-384.985M869.242 -430.545H914.802M869.242 -384.985V-339.424M869.242 -384.985H914.802M869.242 -339.424V-293.864M869.242 -339.424H914.802M869.242 -293.864V-248.303M869.242 -293.864H914.802M869.242 -248.303V-202.743M869.242 -248.303H914.802M869.242 -202.743V-157.182M869.242 -202.743H914.802M869.242 -157.182V-111.621M869.242 -157.182H914.802M869.242 -111.621V-66.0609M869.242 -111.621H914.802M869.242 -66.0609V-20.5004M869.242 -66.0609H914.802M869.242 -20.5004V25.0601M869.242 -20.5004H914.802M869.242 25.0601V70.6207M869.242 25.0601H914.802M869.242 70.6207V116.181M869.242 70.6207H914.802M869.242 116.181V161.742M869.242 116.181H914.802M869.242 161.742V207.302M869.242 161.742H914.802M869.242 207.302V252.863M869.242 207.302H914.802M869.242 252.863V298.423M869.242 252.863H914.802M869.242 298.423V343.984M869.242 298.423H914.802M869.242 343.984V389.544M869.242 343.984H914.802M869.242 389.544V435.105M869.242 389.544H914.802M869.242 435.105H914.802M914.802 -476.106V-430.545M914.802 -476.106H960.363M914.802 -430.545V-384.985M914.802 -430.545H960.363M914.802 -384.985V-339.424M914.802 -384.985H960.363M914.802 -339.424V-293.864M914.802 -339.424H960.363M914.802 -293.864V-248.303M914.802 -293.864H960.363M914.802 -248.303V-202.743M914.802 -248.303H960.363M914.802 -202.743V-157.182M914.802 -202.743H960.363M914.802 -157.182V-111.621M914.802 -157.182H960.363M914.802 -111.621V-66.0609M914.802 -111.621H960.363M914.802 -66.0609V-20.5004M914.802 -66.0609H960.363M914.802 -20.5004V25.0601M914.802 -20.5004H960.363M914.802 25.0601V70.6207M914.802 25.0601H960.363M914.802 70.6207V116.181M914.802 70.6207H960.363M914.802 116.181V161.742M914.802 116.181H960.363M914.802 161.742V207.302M914.802 161.742H960.363M914.802 207.302V252.863M914.802 207.302H960.363M914.802 252.863V298.423M914.802 252.863H960.363M914.802 298.423V343.984M914.802 298.423H960.363M914.802 343.984V389.544M914.802 343.984H960.363M914.802 389.544V435.105M914.802 389.544H960.363M914.802 435.105H960.363M960.363 -476.106V-430.545M960.363 -476.106H1005.92M960.363 -430.545V-384.985M960.363 -430.545H1005.92M960.363 -384.985V-339.424M960.363 -384.985H1005.92M960.363 -339.424V-293.864M960.363 -339.424H1005.92M960.363 -293.864V-248.303M960.363 -293.864H1005.92M960.363 -248.303V-202.743M960.363 -248.303H1005.92M960.363 -202.743V-157.182M960.363 -202.743H1005.92M960.363 -157.182V-111.621M960.363 -157.182H1005.92M960.363 -111.621V-66.0609M960.363 -111.621H1005.92M960.363 -66.0609V-20.5004M960.363 -66.0609H1005.92M960.363 -20.5004V25.0601M960.363 -20.5004H1005.92M960.363 25.0601V70.6207M960.363 25.0601H1005.92M960.363 70.6207V116.181M960.363 70.6207H1005.92M960.363 116.181V161.742M960.363 116.181H1005.92M960.363 161.742V207.302M960.363 161.742H1005.92M960.363 207.302V252.863M960.363 207.302H1005.92M960.363 252.863V298.423M960.363 252.863H1005.92M960.363 298.423V343.984M960.363 298.423H1005.92M960.363 343.984V389.544M960.363 343.984H1005.92M960.363 389.544V435.105M960.363 389.544H1005.92M960.363 435.105H1005.92M1005.92 -476.106V-430.545M1005.92 -476.106H1051.48M1005.92 -430.545V-384.985M1005.92 -430.545H1051.48M1005.92 -384.985V-339.424M1005.92 -384.985H1051.48M1005.92 -339.424V-293.864M1005.92 -339.424H1051.48M1005.92 -293.864V-248.303M1005.92 -293.864H1051.48M1005.92 -248.303V-202.743M1005.92 -248.303H1051.48M1005.92 -202.743V-157.182M1005.92 -202.743H1051.48M1005.92 -157.182V-111.621M1005.92 -157.182H1051.48M1005.92 -111.621V-66.0609M1005.92 -111.621H1051.48M1005.92 -66.0609V-20.5004M1005.92 -66.0609H1051.48M1005.92 -20.5004V25.0601M1005.92 -20.5004H1051.48M1005.92 25.0601V70.6207M1005.92 25.0601H1051.48M1005.92 70.6207V116.181M1005.92 70.6207H1051.48M1005.92 116.181V161.742M1005.92 116.181H1051.48M1005.92 161.742V207.302M1005.92 161.742H1051.48M1005.92 207.302V252.863M1005.92 207.302H1051.48M1005.92 252.863V298.423M1005.92 252.863H1051.48M1005.92 298.423V343.984M1005.92 298.423H1051.48M1005.92 343.984V389.544M1005.92 343.984H1051.48M1005.92 389.544V435.105M1005.92 389.544H1051.48M1005.92 435.105H1051.48M1051.48 -476.106V-430.545M1051.48 -476.106H1097.04M1051.48 -430.545V-384.985M1051.48 -430.545H1097.04M1051.48 -384.985V-339.424M1051.48 -384.985H1097.04M1051.48 -339.424V-293.864M1051.48 -339.424H1097.04M1051.48 -293.864V-248.303M1051.48 -293.864H1097.04M1051.48 -248.303V-202.743M1051.48 -248.303H1097.04M1051.48 -202.743V-157.182M1051.48 -202.743H1097.04M1051.48 -157.182V-111.621M1051.48 -157.182H1097.04M1051.48 -111.621V-66.0609M1051.48 -111.621H1097.04M1051.48 -66.0609V-20.5004M1051.48 -66.0609H1097.04M1051.48 -20.5004V25.0601M1051.48 -20.5004H1097.04M1051.48 25.0601V70.6207M1051.48 25.0601H1097.04M1051.48 70.6207V116.181M1051.48 70.6207H1097.04M1051.48 116.181V161.742M1051.48 116.181H1097.04M1051.48 161.742V207.302M1051.48 161.742H1097.04M1051.48 207.302V252.863M1051.48 207.302H1097.04M1051.48 252.863V298.423M1051.48 252.863H1097.04M1051.48 298.423V343.984M1051.48 298.423H1097.04M1051.48 343.984V389.544M1051.48 343.984H1097.04M1051.48 389.544V435.105M1051.48 389.544H1097.04M1051.48 435.105H1097.04M1097.04 -476.106V-430.545M1097.04 -476.106H1142.6M1097.04 -430.545V-384.985M1097.04 -430.545H1142.6M1097.04 -384.985V-339.424M1097.04 -384.985H1142.6M1097.04 -339.424V-293.864M1097.04 -339.424H1142.6M1097.04 -293.864V-248.303M1097.04 -293.864H1142.6M1097.04 -248.303V-202.743M1097.04 -248.303H1142.6M1097.04 -202.743V-157.182M1097.04 -202.743H1142.6M1097.04 -157.182V-111.621M1097.04 -157.182H1142.6M1097.04 -111.621V-66.0609M1097.04 -111.621H1142.6M1097.04 -66.0609V-20.5004M1097.04 -66.0609H1142.6M1097.04 -20.5004V25.0601M1097.04 -20.5004H1142.6M1097.04 25.0601V70.6207M1097.04 25.0601H1142.6M1097.04 70.6207V116.181M1097.04 70.6207H1142.6M1097.04 116.181V161.742M1097.04 116.181H1142.6M1097.04 161.742V207.302M1097.04 161.742H1142.6M1097.04 207.302V252.863M1097.04 207.302H1142.6M1097.04 252.863V298.423M1097.04 252.863H1142.6M1097.04 298.423V343.984M1097.04 298.423H1142.6M1097.04 343.984V389.544M1097.04 343.984H1142.6M1097.04 389.544V435.105M1097.04 389.544H1142.6M1097.04 435.105H1142.6M1142.6 -476.106V-430.545M1142.6 -476.106H1188.17M1142.6 -430.545V-384.985M1142.6 -430.545H1188.17M1142.6 -384.985V-339.424M1142.6 -384.985H1188.17M1142.6 -339.424V-293.864M1142.6 -339.424H1188.17M1142.6 -293.864V-248.303M1142.6 -293.864H1188.17M1142.6 -248.303V-202.743M1142.6 -248.303H1188.17M1142.6 -202.743V-157.182M1142.6 -202.743H1188.17M1142.6 -157.182V-111.621M1142.6 -157.182H1188.17M1142.6 -111.621V-66.0609M1142.6 -111.621H1188.17M1142.6 -66.0609V-20.5004M1142.6 -66.0609H1188.17M1142.6 -20.5004V25.0601M1142.6 -20.5004H1188.17M1142.6 25.0601V70.6207M1142.6 25.0601H1188.17M1142.6 70.6207V116.181M1142.6 70.6207H1188.17M1142.6 116.181V161.742M1142.6 116.181H1188.17M1142.6 161.742V207.302M1142.6 161.742H1188.17M1142.6 207.302V252.863M1142.6 207.302H1188.17M1142.6 252.863V298.423M1142.6 252.863H1188.17M1142.6 298.423V343.984M1142.6 298.423H1188.17M1142.6 343.984V389.544M1142.6 343.984H1188.17M1142.6 389.544V435.105M1142.6 389.544H1188.17M1142.6 435.105H1188.17M1188.17 -476.106V-430.545M1188.17 -476.106H1233.73M1188.17 -430.545V-384.985M1188.17 -430.545H1233.73M1188.17 -384.985V-339.424M1188.17 -384.985H1233.73M1188.17 -339.424V-293.864M1188.17 -339.424H1233.73M1188.17 -293.864V-248.303M1188.17 -293.864H1233.73M1188.17 -248.303V-202.743M1188.17 -248.303H1233.73M1188.17 -202.743V-157.182M1188.17 -202.743H1233.73M1188.17 -157.182V-111.621M1188.17 -157.182H1233.73M1188.17 -111.621V-66.0609M1188.17 -111.621H1233.73M1188.17 -66.0609V-20.5004M1188.17 -66.0609H1233.73M1188.17 -20.5004V25.0601M1188.17 -20.5004H1233.73M1188.17 25.0601V70.6207M1188.17 25.0601H1233.73M1188.17 70.6207V116.181M1188.17 70.6207H1233.73M1188.17 116.181V161.742M1188.17 116.181H1233.73M1188.17 161.742V207.302M1188.17 161.742H1233.73M1188.17 207.302V252.863M1188.17 207.302H1233.73M1188.17 252.863V298.423M1188.17 252.863H1233.73M1188.17 298.423V343.984M1188.17 298.423H1233.73M1188.17 343.984V389.544M1188.17 343.984H1233.73M1188.17 389.544V435.105M1188.17 389.544H1233.73M1188.17 435.105H1233.73M1233.73 -476.106V-430.545M1233.73 -476.106H1279.29M1233.73 -430.545V-384.985M1233.73 -430.545H1279.29M1233.73 -384.985V-339.424M1233.73 -384.985H1279.29M1233.73 -339.424V-293.864M1233.73 -339.424H1279.29M1233.73 -293.864V-248.303M1233.73 -293.864H1279.29M1233.73 -248.303V-202.743M1233.73 -248.303H1279.29M1233.73 -202.743V-157.182M1233.73 -202.743H1279.29M1233.73 -157.182V-111.621M1233.73 -157.182H1279.29M1233.73 -111.621V-66.0609M1233.73 -111.621H1279.29M1233.73 -66.0609V-20.5004M1233.73 -66.0609H1279.29M1233.73 -20.5004V25.0601M1233.73 -20.5004H1279.29M1233.73 25.0601V70.6207M1233.73 25.0601H1279.29M1233.73 70.6207V116.181M1233.73 70.6207H1279.29M1233.73 116.181V161.742M1233.73 116.181H1279.29M1233.73 161.742V207.302M1233.73 161.742H1279.29M1233.73 207.302V252.863M1233.73 207.302H1279.29M1233.73 252.863V298.423M1233.73 252.863H1279.29M1233.73 298.423V343.984M1233.73 298.423H1279.29M1233.73 343.984V389.544M1233.73 343.984H1279.29M1233.73 389.544V435.105M1233.73 389.544H1279.29M1233.73 435.105H1279.29M1279.29 -476.106V-430.545M1279.29 -476.106H1324.85M1279.29 -430.545V-384.985M1279.29 -430.545H1324.85M1279.29 -384.985V-339.424M1279.29 -384.985H1324.85M1279.29 -339.424V-293.864M1279.29 -339.424H1324.85M1279.29 -293.864V-248.303M1279.29 -293.864H1324.85M1279.29 -248.303V-202.743M1279.29 -248.303H1324.85M1279.29 -202.743V-157.182M1279.29 -202.743H1324.85M1279.29 -157.182V-111.621M1279.29 -157.182H1324.85M1279.29 -111.621V-66.0609M1279.29 -111.621H1324.85M1279.29 -66.0609V-20.5004M1279.29 -66.0609H1324.85M1279.29 -20.5004V25.0601M1279.29 -20.5004H1324.85M1279.29 25.0601V70.6207M1279.29 25.0601H1324.85M1279.29 70.6207V116.181M1279.29 70.6207H1324.85M1279.29 116.181V161.742M1279.29 116.181H1324.85M1279.29 161.742V207.302M1279.29 161.742H1324.85M1279.29 207.302V252.863M1279.29 207.302H1324.85M1279.29 252.863V298.423M1279.29 252.863H1324.85M1279.29 298.423V343.984M1279.29 298.423H1324.85M1279.29 343.984V389.544M1279.29 343.984H1324.85M1279.29 389.544V435.105M1279.29 389.544H1324.85M1279.29 435.105H1324.85M1324.85 -476.106V-430.545M1324.85 -476.106H1370.41M1324.85 -430.545V-384.985M1324.85 -430.545H1370.41M1324.85 -384.985V-339.424M1324.85 -384.985H1370.41M1324.85 -339.424V-293.864M1324.85 -339.424H1370.41M1324.85 -293.864V-248.303M1324.85 -293.864H1370.41M1324.85 -248.303V-202.743M1324.85 -248.303H1370.41M1324.85 -202.743V-157.182M1324.85 -202.743H1370.41M1324.85 -157.182V-111.621M1324.85 -157.182H1370.41M1324.85 -111.621V-66.0609M1324.85 -111.621H1370.41M1324.85 -66.0609V-20.5004M1324.85 -66.0609H1370.41M1324.85 -20.5004V25.0601M1324.85 -20.5004H1370.41M1324.85 25.0601V70.6207M1324.85 25.0601H1370.41M1324.85 70.6207V116.181M1324.85 70.6207H1370.41M1324.85 116.181V161.742M1324.85 116.181H1370.41M1324.85 161.742V207.302M1324.85 161.742H1370.41M1324.85 207.302V252.863M1324.85 207.302H1370.41M1324.85 252.863V298.423M1324.85 252.863H1370.41M1324.85 298.423V343.984M1324.85 298.423H1370.41M1324.85 343.984V389.544M1324.85 343.984H1370.41M1324.85 389.544V435.105M1324.85 389.544H1370.41M1324.85 435.105H1370.41M1370.41 -476.106V-430.545M1370.41 -476.106H1415.97M1370.41 -430.545V-384.985M1370.41 -430.545H1415.97M1370.41 -384.985V-339.424M1370.41 -384.985H1415.97M1370.41 -339.424V-293.864M1370.41 -339.424H1415.97M1370.41 -293.864V-248.303M1370.41 -293.864H1415.97M1370.41 -248.303V-202.743M1370.41 -248.303H1415.97M1370.41 -202.743V-157.182M1370.41 -202.743H1415.97M1370.41 -157.182V-111.621M1370.41 -157.182H1415.97M1370.41 -111.621V-66.0609M1370.41 -111.621H1415.97M1370.41 -66.0609V-20.5004M1370.41 -66.0609H1415.97M1370.41 -20.5004V25.0601M1370.41 -20.5004H1415.97M1370.41 25.0601V70.6207M1370.41 25.0601H1415.97M1370.41 70.6207V116.181M1370.41 70.6207H1415.97M1370.41 116.181V161.742M1370.41 116.181H1415.97M1370.41 161.742V207.302M1370.41 161.742H1415.97M1370.41 207.302V252.863M1370.41 207.302H1415.97M1370.41 252.863V298.423M1370.41 252.863H1415.97M1370.41 298.423V343.984M1370.41 298.423H1415.97M1370.41 343.984V389.544M1370.41 343.984H1415.97M1370.41 389.544V435.105M1370.41 389.544H1415.97M1370.41 435.105H1415.97M1415.97 -476.106V-430.545M1415.97 -476.106H1461.53M1415.97 -430.545V-384.985M1415.97 -430.545H1461.53M1415.97 -384.985V-339.424M1415.97 -384.985H1461.53M1415.97 -339.424V-293.864M1415.97 -339.424H1461.53M1415.97 -293.864V-248.303M1415.97 -293.864H1461.53M1415.97 -248.303V-202.743M1415.97 -248.303H1461.53M1415.97 -202.743V-157.182M1415.97 -202.743H1461.53M1415.97 -157.182V-111.621M1415.97 -157.182H1461.53M1415.97 -111.621V-66.0609M1415.97 -111.621H1461.53M1415.97 -66.0609V-20.5004M1415.97 -66.0609H1461.53M1415.97 -20.5004V25.0601M1415.97 -20.5004H1461.53M1415.97 25.0601V70.6207M1415.97 25.0601H1461.53M1415.97 70.6207V116.181M1415.97 70.6207H1461.53M1415.97 116.181V161.742M1415.97 116.181H1461.53M1415.97 161.742V207.302M1415.97 161.742H1461.53M1415.97 207.302V252.863M1415.97 207.302H1461.53M1415.97 252.863V298.423M1415.97 252.863H1461.53M1415.97 298.423V343.984M1415.97 298.423H1461.53M1415.97 343.984V389.544M1415.97 343.984H1461.53M1415.97 389.544V435.105M1415.97 389.544H1461.53M1415.97 435.105H1461.53M1461.53 -476.106V-430.545M1461.53 -476.106H1507.09M1461.53 -430.545V-384.985M1461.53 -430.545H1507.09M1461.53 -384.985V-339.424M1461.53 -384.985H1507.09M1461.53 -339.424V-293.864M1461.53 -339.424H1507.09M1461.53 -293.864V-248.303M1461.53 -293.864H1507.09M1461.53 -248.303V-202.743M1461.53 -248.303H1507.09M1461.53 -202.743V-157.182M1461.53 -202.743H1507.09M1461.53 -157.182V-111.621M1461.53 -157.182H1507.09M1461.53 -111.621V-66.0609M1461.53 -111.621H1507.09M1461.53 -66.0609V-20.5004M1461.53 -66.0609H1507.09M1461.53 -20.5004V25.0601M1461.53 -20.5004H1507.09M1461.53 25.0601V70.6207M1461.53 25.0601H1507.09M1461.53 70.6207V116.181M1461.53 70.6207H1507.09M1461.53 116.181V161.742M1461.53 116.181H1507.09M1461.53 161.742V207.302M1461.53 161.742H1507.09M1461.53 207.302V252.863M1461.53 207.302H1507.09M1461.53 252.863V298.423M1461.53 252.863H1507.09M1461.53 298.423V343.984M1461.53 298.423H1507.09M1461.53 343.984V389.544M1461.53 343.984H1507.09M1461.53 389.544V435.105M1461.53 389.544H1507.09M1461.53 435.105H1507.09M1507.09 -476.106V-430.545M1507.09 -476.106H1552.65M1507.09 -430.545V-384.985M1507.09 -430.545H1552.65M1507.09 -384.985V-339.424M1507.09 -384.985H1552.65M1507.09 -339.424V-293.864M1507.09 -339.424H1552.65M1507.09 -293.864V-248.303M1507.09 -293.864H1552.65M1507.09 -248.303V-202.743M1507.09 -248.303H1552.65M1507.09 -202.743V-157.182M1507.09 -202.743H1552.65M1507.09 -157.182V-111.621M1507.09 -157.182H1552.65M1507.09 -111.621V-66.0609M1507.09 -111.621H1552.65M1507.09 -66.0609V-20.5004M1507.09 -66.0609H1552.65M1507.09 -20.5004V25.0601M1507.09 -20.5004H1552.65M1507.09 25.0601V70.6207M1507.09 25.0601H1552.65M1507.09 70.6207V116.181M1507.09 70.6207H1552.65M1507.09 116.181V161.742M1507.09 116.181H1552.65M1507.09 161.742V207.302M1507.09 161.742H1552.65M1507.09 207.302V252.863M1507.09 207.302H1552.65M1507.09 252.863V298.423M1507.09 252.863H1552.65M1507.09 298.423V343.984M1507.09 298.423H1552.65M1507.09 343.984V389.544M1507.09 343.984H1552.65M1507.09 389.544V435.105M1507.09 389.544H1552.65M1507.09 435.105H1552.65M1552.65 -476.106V-430.545M1552.65 -476.106H1598.21M1552.65 -430.545V-384.985M1552.65 -430.545H1598.21M1552.65 -384.985V-339.424M1552.65 -384.985H1598.21M1552.65 -339.424V-293.864M1552.65 -339.424H1598.21M1552.65 -293.864V-248.303M1552.65 -293.864H1598.21M1552.65 -248.303V-202.743M1552.65 -248.303H1598.21M1552.65 -202.743V-157.182M1552.65 -202.743H1598.21M1552.65 -157.182V-111.621M1552.65 -157.182H1598.21M1552.65 -111.621V-66.0609M1552.65 -111.621H1598.21M1552.65 -66.0609V-20.5004M1552.65 -66.0609H1598.21M1552.65 -20.5004V25.0601M1552.65 -20.5004H1598.21M1552.65 25.0601V70.6207M1552.65 25.0601H1598.21M1552.65 70.6207V116.181M1552.65 70.6207H1598.21M1552.65 116.181V161.742M1552.65 116.181H1598.21M1552.65 161.742V207.302M1552.65 161.742H1598.21M1552.65 207.302V252.863M1552.65 207.302H1598.21M1552.65 252.863V298.423M1552.65 252.863H1598.21M1552.65 298.423V343.984M1552.65 298.423H1598.21M1552.65 343.984V389.544M1552.65 343.984H1598.21M1552.65 389.544V435.105M1552.65 389.544H1598.21M1552.65 435.105H1598.21M1598.21 -476.106V-430.545M1598.21 -476.106H1643.77M1598.21 -430.545V-384.985M1598.21 -430.545H1643.77M1598.21 -384.985V-339.424M1598.21 -384.985H1643.77M1598.21 -339.424V-293.864M1598.21 -339.424H1643.77M1598.21 -293.864V-248.303M1598.21 -293.864H1643.77M1598.21 -248.303V-202.743M1598.21 -248.303H1643.77M1598.21 -202.743V-157.182M1598.21 -202.743H1643.77M1598.21 -157.182V-111.621M1598.21 -157.182H1643.77M1598.21 -111.621V-66.0609M1598.21 -111.621H1643.77M1598.21 -66.0609V-20.5004M1598.21 -66.0609H1643.77M1598.21 -20.5004V25.0601M1598.21 -20.5004H1643.77M1598.21 25.0601V70.6207M1598.21 25.0601H1643.77M1598.21 70.6207V116.181M1598.21 70.6207H1643.77M1598.21 116.181V161.742M1598.21 116.181H1643.77M1598.21 161.742V207.302M1598.21 161.742H1643.77M1598.21 207.302V252.863M1598.21 207.302H1643.77M1598.21 252.863V298.423M1598.21 252.863H1643.77M1598.21 298.423V343.984M1598.21 298.423H1643.77M1598.21 343.984V389.544M1598.21 343.984H1643.77M1598.21 389.544V435.105M1598.21 389.544H1643.77M1598.21 435.105H1643.77M1643.77 -476.106V-430.545M1643.77 -476.106H1689.33V-430.545M1643.77 -430.545V-384.985M1643.77 -430.545H1689.33M1643.77 -384.985V-339.424M1643.77 -384.985H1689.33M1643.77 -339.424V-293.864M1643.77 -339.424H1689.33M1643.77 -293.864V-248.303M1643.77 -293.864H1689.33M1643.77 -248.303V-202.743M1643.77 -248.303H1689.33M1643.77 -202.743V-157.182M1643.77 -202.743H1689.33M1643.77 -157.182V-111.621M1643.77 -157.182H1689.33M1643.77 -111.621V-66.0609M1643.77 -111.621H1689.33M1643.77 -66.0609V-20.5004M1643.77 -66.0609H1689.33M1643.77 -20.5004V25.0601M1643.77 -20.5004H1689.33M1643.77 25.0601V70.6207M1643.77 25.0601H1689.33M1643.77 70.6207V116.181M1643.77 70.6207H1689.33M1643.77 116.181V161.742M1643.77 116.181H1689.33M1643.77 161.742V207.302M1643.77 161.742H1689.33M1643.77 207.302V252.863M1643.77 207.302H1689.33M1643.77 252.863V298.423M1643.77 252.863H1689.33M1643.77 298.423V343.984M1643.77 298.423H1689.33M1643.77 343.984V389.544M1643.77 343.984H1689.33M1643.77 389.544V435.105M1643.77 389.544H1689.33M1643.77 435.105H1689.33V389.544M1689.33 -430.545V-384.985M1689.33 -384.985V-339.424M1689.33 -339.424V-293.864M1689.33 -293.864V-248.303M1689.33 -248.303V-202.743M1689.33 -202.743V-157.182M1689.33 -157.182V-111.621M1689.33 -111.621V-66.0609M1689.33 -66.0609V-20.5004M1689.33 -20.5004V25.0601M1689.33 25.0601V70.6207M1689.33 70.6207V116.181M1689.33 116.181V161.742M1689.33 161.742V207.302M1689.33 207.302V252.863M1689.33 252.863V298.423M1689.33 298.423V343.984M1689.33 343.984V389.544" stroke="url(#paint0_radial_2_1863)" stroke-opacity="0.3" stroke-width="0.569506"/>
</g>
<g style="mix-blend-mode:soft-light" opacity="0.8">
<path d="M-133.09 -307.532V-293.864M-133.09 -293.864V-280.196M-133.09 -293.864H-146.758M-133.09 -293.864H-119.422M-133.09 56.9522V70.6203M-133.09 70.6203V84.2885M-133.09 70.6203H-146.758M-133.09 70.6203H-119.422M-133.09 421.436V435.104M-133.09 435.104V448.773M-133.09 435.104H-146.758M-133.09 435.104H-119.422M231.395 -307.532V-293.864M231.395 -293.864V-280.196M231.395 -293.864H217.727M231.395 -293.864H245.063M231.395 56.9522V70.6203M231.395 70.6203V84.2885M231.395 70.6203H217.727M231.395 70.6203H245.063M231.395 421.436V435.104M231.395 435.104V448.773M231.395 435.104H217.727M231.395 435.104H245.063M595.879 -307.532V-293.864M595.879 -293.864V-280.196M595.879 -293.864H582.211M595.879 -293.864H609.547M595.879 56.9522V70.6203M595.879 70.6203V84.2885M595.879 70.6203H582.211M595.879 70.6203H609.547M595.879 421.436V435.104M595.879 435.104V448.773M595.879 435.104H582.211M595.879 435.104H609.547M960.363 -307.532V-293.864M960.363 -293.864V-280.196M960.363 -293.864H946.695M960.363 -293.864H974.032M960.363 56.9522V70.6203M960.363 70.6203V84.2885M960.363 70.6203H946.695M960.363 70.6203H974.032M960.363 421.436V435.104M960.363 435.104V448.773M960.363 435.104H946.695M960.363 435.104H974.032M1324.85 -307.532V-293.864M1324.85 -293.864V-280.196M1324.85 -293.864H1311.18M1324.85 -293.864H1338.52M1324.85 56.9522V70.6203M1324.85 70.6203V84.2885M1324.85 70.6203H1311.18M1324.85 70.6203H1338.52M1324.85 421.436V435.104M1324.85 435.104V448.773M1324.85 435.104H1311.18M1324.85 435.104H1338.52M1689.33 -307.532V-293.864M1689.33 -293.864V-280.196M1689.33 -293.864H1675.66M1689.33 -293.864H1703M1689.33 56.9522V70.6203M1689.33 70.6203V84.2885M1689.33 70.6203H1675.66M1689.33 70.6203H1703M1689.33 421.436V435.104M1689.33 435.104V448.773M1689.33 435.104H1675.66M1689.33 435.104H1703M-133.09 -489.774V-476.106M-133.09 -476.106V-462.438M-133.09 -476.106H-146.758M-133.09 -476.106H-119.422M-133.09 -125.29V-111.622M-133.09 -111.622V-97.9536M-133.09 -111.622H-146.758M-133.09 -111.622H-119.422M-133.09 239.194V252.862M-133.09 252.862V266.531M-133.09 252.862H-146.758M-133.09 252.862H-119.422M231.395 -489.774V-476.106M231.395 -476.106V-462.438M231.395 -476.106H217.727M231.395 -476.106H245.063M231.395 -125.29V-111.622M231.395 -111.622V-97.9536M231.395 -111.622H217.727M231.395 -111.622H245.063M231.395 239.194V252.862M231.395 252.862V266.531M231.395 252.862H217.727M231.395 252.862H245.063M595.879 -489.774V-476.106M595.879 -476.106V-462.438M595.879 -476.106H582.211M595.879 -476.106H609.547M595.879 -125.29V-111.622M595.879 -111.622V-97.9536M595.879 -111.622H582.211M595.879 -111.622H609.547M595.879 239.194V252.862M595.879 252.862V266.531M595.879 252.862H582.211M595.879 252.862H609.547M960.363 -489.774V-476.106M960.363 -476.106V-462.438M960.363 -476.106H946.695M960.363 -476.106H974.032M960.363 -125.29V-111.622M960.363 -111.622V-97.9536M960.363 -111.622H946.695M960.363 -111.622H974.032M960.363 239.194V252.862M960.363 252.862V266.531M960.363 252.862H946.695M960.363 252.862H974.032M1324.85 -489.774V-476.106M1324.85 -476.106V-462.438M1324.85 -476.106H1311.18M1324.85 -476.106H1338.52M1324.85 -125.29V-111.622M1324.85 -111.622V-97.9536M1324.85 -111.622H1311.18M1324.85 -111.622H1338.52M1324.85 239.194V252.862M1324.85 252.862V266.531M1324.85 252.862H1311.18M1324.85 252.862H1338.52M1689.33 -489.774V-476.106M1689.33 -476.106V-462.438M1689.33 -476.106H1675.66M1689.33 -476.106H1703M1689.33 -125.29V-111.622M1689.33 -111.622V-97.9536M1689.33 -111.622H1675.66M1689.33 -111.622H1703M1689.33 239.194V252.862M1689.33 252.862V266.531M1689.33 252.862H1675.66M1689.33 252.862H1703M-315.332 -307.532V-293.864M-315.332 -293.864V-280.196M-315.332 -293.864H-329M-315.332 -293.864H-301.664M-315.332 56.9522V70.6203M-315.332 70.6203V84.2885M-315.332 70.6203H-329M-315.332 70.6203H-301.664M-315.332 421.436V435.104M-315.332 435.104V448.773M-315.332 435.104H-329M-315.332 435.104H-301.664M49.1525 -307.532V-293.864M49.1525 -293.864V-280.196M49.1525 -293.864H35.4844M49.1525 -293.864H62.8207M49.1525 56.9522V70.6203M49.1525 70.6203V84.2885M49.1525 70.6203H35.4844M49.1525 70.6203H62.8207M49.1525 421.436V435.104M49.1525 435.104V448.773M49.1525 435.104H35.4844M49.1525 435.104H62.8207M413.637 -307.532V-293.864M413.637 -293.864V-280.196M413.637 -293.864H399.969M413.637 -293.864H427.305M413.637 56.9522V70.6203M413.637 70.6203V84.2885M413.637 70.6203H399.969M413.637 70.6203H427.305M413.637 421.436V435.104M413.637 435.104V448.773M413.637 435.104H399.969M413.637 435.104H427.305M778.121 -307.532V-293.864M778.121 -293.864V-280.196M778.121 -293.864H764.453M778.121 -293.864H791.789M778.121 56.9522V70.6203M778.121 70.6203V84.2885M778.121 70.6203H764.453M778.121 70.6203H791.789M778.121 421.436V435.104M778.121 435.104V448.773M778.121 435.104H764.453M778.121 435.104H791.789M1142.61 -307.532V-293.864M1142.61 -293.864V-280.196M1142.61 -293.864H1128.94M1142.61 -293.864H1156.27M1142.61 56.9522V70.6203M1142.61 70.6203V84.2885M1142.61 70.6203H1128.94M1142.61 70.6203H1156.27M1142.61 421.436V435.104M1142.61 435.104V448.773M1142.61 435.104H1128.94M1142.61 435.104H1156.27M1507.09 -307.532V-293.864M1507.09 -293.864V-280.196M1507.09 -293.864H1493.42M1507.09 -293.864H1520.76M1507.09 56.9522V70.6203M1507.09 70.6203V84.2885M1507.09 70.6203H1493.42M1507.09 70.6203H1520.76M1507.09 421.436V435.104M1507.09 435.104V448.773M1507.09 435.104H1493.42M1507.09 435.104H1520.76M-315.332 -489.774V-476.106M-315.332 -476.106V-462.438M-315.332 -476.106H-329M-315.332 -476.106H-301.664M-315.332 -125.29V-111.622M-315.332 -111.622V-97.9536M-315.332 -111.622H-329M-315.332 -111.622H-301.664M-315.332 239.194V252.862M-315.332 252.862V266.531M-315.332 252.862H-329M-315.332 252.862H-301.664M49.1525 -489.774V-476.106M49.1525 -476.106V-462.438M49.1525 -476.106H35.4844M49.1525 -476.106H62.8207M49.1525 -125.29V-111.622M49.1525 -111.622V-97.9536M49.1525 -111.622H35.4844M49.1525 -111.622H62.8207M49.1525 239.194V252.862M49.1525 252.862V266.531M49.1525 252.862H35.4844M49.1525 252.862H62.8207M413.637 -489.774V-476.106M413.637 -476.106V-462.438M413.637 -476.106H399.969M413.637 -476.106H427.305M413.637 -125.29V-111.622M413.637 -111.622V-97.9536M413.637 -111.622H399.969M413.637 -111.622H427.305M413.637 239.194V252.862M413.637 252.862V266.531M413.637 252.862H399.969M413.637 252.862H427.305M778.121 -489.774V-476.106M778.121 -476.106V-462.438M778.121 -476.106H764.453M778.121 -476.106H791.789M778.121 -125.29V-111.622M778.121 -111.622V-97.9536M778.121 -111.622H764.453M778.121 -111.622H791.789M778.121 239.194V252.862M778.121 252.862V266.531M778.121 252.862H764.453M778.121 252.862H791.789M1142.61 -489.774V-476.106M1142.61 -476.106V-462.438M1142.61 -476.106H1128.94M1142.61 -476.106H1156.27M1142.61 -125.29V-111.622M1142.61 -111.622V-97.9536M1142.61 -111.622H1128.94M1142.61 -111.622H1156.27M1142.61 239.194V252.862M1142.61 252.862V266.531M1142.61 252.862H1128.94M1142.61 252.862H1156.27M1507.09 -489.774V-476.106M1507.09 -476.106V-462.438M1507.09 -476.106H1493.42M1507.09 -476.106H1520.76M1507.09 -125.29V-111.622M1507.09 -111.622V-97.9536M1507.09 -111.622H1493.42M1507.09 -111.622H1520.76M1507.09 239.194V252.862M1507.09 252.862V266.531M1507.09 252.862H1493.42M1507.09 252.862H1520.76" stroke="url(#paint1_radial_2_1863)" stroke-opacity="0.3" stroke-width="1.13901"/>
</g>
</g>
<path d="M0 0V1H1437V0V-1H0V0ZM1437 136V135H0V136V137H1437V136Z" fill="white" fill-opacity="0.2" mask="url(#path-1-inside-1_2_1863)"/>
<defs>
<radialGradient id="paint0_radial_2_1863" cx="0" cy="0" r="1" gradientUnits="userSpaceOnUse" gradientTransform="translate(687 -20.5004) rotate(90) scale(455.605 1002.33)">
<stop stop-color="white"/>
<stop offset="1" stop-color="white" stop-opacity="0"/>
</radialGradient>
<radialGradient id="paint1_radial_2_1863" cx="0" cy="0" r="1" gradientUnits="userSpaceOnUse" gradientTransform="translate(687 -20.5008) rotate(90) scale(469.273 1016)">
<stop stop-color="white"/>
<stop offset="1" stop-color="white" stop-opacity="0"/>
</radialGradient>
<clipPath id="clip0_2_1863">
<path d="M0 0H1437V136H0V0Z" fill="white"/>
</clipPath>
</defs>
</svg>
