<svg width="1440" height="1000" viewBox="0 0 1440 1000" fill="none" xmlns="http://www.w3.org/2000/svg">
<g style="mix-blend-mode:plus-lighter" filter="url(#filter0_ddf_1_2099)">
<path d="M767.414 680.121C772.96 695.024 775.731 714.523 775.731 738.616C775.731 748.906 767.666 757.247 757.718 757.247L684.192 757.247C678.223 757.247 673.384 752.244 673.384 746.069C673.384 732.159 670.492 720.235 664.705 710.302C658.917 700.366 650.722 691.175 640.113 682.728C629.264 674.036 616.484 664.596 601.778 654.414C596.027 650.521 588.124 652.518 585.173 658.94L511.945 818.385C496.033 853.029 520.46 893 557.546 893L642.514 893C646.997 893 651.297 891.219 654.467 888.049C657.637 884.879 659.418 880.579 659.418 876.096L659.418 872.114C659.418 837.509 686.542 809.458 720 809.458C753.458 809.458 780.582 837.509 780.582 872.114L780.582 876.096C780.582 880.579 782.363 884.879 785.533 888.049C788.703 891.219 793.003 893 797.486 893L882.454 893C919.54 893 943.967 853.029 928.055 818.385L784.411 506.122C778.575 493.453 768.738 483.767 756.926 477.059C744.873 470.355 730.766 467 714.614 467C699.905 467 687.128 469.733 676.277 475.198C665.428 480.414 656.991 487.99 650.961 497.926C644.934 507.613 641.921 519.037 641.921 532.202C641.921 546.362 646.019 559.9 654.217 572.818C662.173 585.731 675.074 597.654 692.915 608.585C712.201 619.762 727.995 630.691 740.291 641.372C752.587 652.054 761.627 664.969 767.414 680.121Z" fill="url(#paint0_linear_1_2099)" fill-opacity="0.6"/>
<path d="M672.586 680.121C667.04 695.024 664.269 714.523 664.269 738.616C664.269 748.906 672.334 757.247 682.282 757.247L755.808 757.247C761.777 757.247 766.616 752.243 766.616 746.069C766.616 732.159 769.508 720.235 775.295 710.302C781.083 700.366 789.278 691.175 799.887 682.728C810.736 674.036 823.516 664.596 838.222 654.414C843.973 650.521 851.876 652.518 854.827 658.94L928.055 818.385C943.967 853.029 919.54 893 882.454 893L797.486 893C793.003 893 788.703 891.219 785.533 888.049C782.363 884.879 780.582 880.579 780.582 876.096L780.582 872.114C780.582 837.509 753.458 809.458 720 809.458C686.542 809.458 659.418 837.509 659.418 872.114L659.418 876.096C659.418 880.579 657.637 884.879 654.467 888.049C651.297 891.219 646.997 893 642.514 893L557.546 893C520.46 893 496.033 853.029 511.945 818.385L655.589 506.122C661.425 493.453 671.262 483.766 683.074 477.059C695.127 470.355 709.234 467 725.386 467C740.095 467 752.872 469.733 763.723 475.198C774.572 480.414 783.009 487.99 789.039 497.926C795.066 507.613 798.079 519.037 798.079 532.202C798.079 546.362 793.981 559.9 785.783 572.818C777.827 585.731 764.926 597.654 747.085 608.585C727.799 619.762 712.005 630.691 699.709 641.372C687.413 652.054 678.373 664.969 672.586 680.121Z" fill="url(#paint1_linear_1_2099)" fill-opacity="0.6"/>
</g>
<defs>
<filter id="filter0_ddf_1_2099" x="-1.99576" y="0.420555" width="1443.99" height="1443.99" filterUnits="userSpaceOnUse" color-interpolation-filters="sRGB">
<feFlood flood-opacity="0" result="BackgroundImageFix"/>
<feColorMatrix in="SourceAlpha" type="matrix" values="0 0 0 0 0 0 0 0 0 0 0 0 0 0 0 0 0 0 127 0" result="hardAlpha"/>
<feOffset dy="42.4163"/>
<feGaussianBlur stdDeviation="254.498"/>
<feComposite in2="hardAlpha" operator="out"/>
<feColorMatrix type="matrix" values="0 0 0 0 0.858824 0 0 0 0 0.694118 0 0 0 0 1 0 0 0 1 0"/>
<feBlend mode="normal" in2="BackgroundImageFix" result="effect1_dropShadow_1_2099"/>
<feColorMatrix in="SourceAlpha" type="matrix" values="0 0 0 0 0 0 0 0 0 0 0 0 0 0 0 0 0 0 127 0" result="hardAlpha"/>
<feOffset dy="-4.73334"/>
<feGaussianBlur stdDeviation="53.25"/>
<feComposite in2="hardAlpha" operator="out"/>
<feColorMatrix type="matrix" values="0 0 0 0 0.180392 0 0 0 0 0.0392157 0 0 0 0 0.329412 0 0 0 1 0"/>
<feBlend mode="normal" in2="effect1_dropShadow_1_2099" result="effect2_dropShadow_1_2099"/>
<feBlend mode="normal" in="SourceGraphic" in2="effect2_dropShadow_1_2099" result="shape"/>
<feGaussianBlur stdDeviation="40" result="effect3_foregroundBlur_1_2099"/>
</filter>
<linearGradient id="paint0_linear_1_2099" x1="720" y1="893" x2="720" y2="467" gradientUnits="userSpaceOnUse">
<stop stop-color="#5C14AF"/>
<stop offset="1" stop-color="#FB9B00"/>
</linearGradient>
<linearGradient id="paint1_linear_1_2099" x1="720" y1="893" x2="720" y2="467" gradientUnits="userSpaceOnUse">
<stop stop-color="#5C14AF"/>
<stop offset="1" stop-color="#FB9B00"/>
</linearGradient>
</defs>
</svg>
