<svg width="36" height="35" viewBox="0 0 36 35" fill="none" xmlns="http://www.w3.org/2000/svg">
<g filter="url(#filter0_d_29_456)">
<rect width="32" height="32" transform="translate(2 1)" fill="#FB9B00"/>
<rect width="32" height="32" transform="translate(2 1)" fill="url(#paint0_linear_29_456)"/>
<path d="M11.2258 16.3294L18.224 7.34651C18.7713 6.64397 19.7972 7.08124 19.7972 8.01707V14.9699C19.7972 15.5305 20.1995 15.985 20.6958 15.985H24.0996C24.8729 15.985 25.2851 17.0149 24.7742 17.6706L17.776 26.6535C17.2287 27.356 16.2028 26.9188 16.2028 25.9829V19.0301C16.2028 18.4695 15.8005 18.015 15.3042 18.015H11.9004C11.1271 18.015 10.7149 16.9851 11.2258 16.3294Z" stroke="#FAFCF8" stroke-width="1.5" stroke-linecap="round" stroke-linejoin="round"/>
</g>
<defs>
<filter id="filter0_d_29_456" x="0.866699" y="0.43335" width="34.2666" height="34.2666" filterUnits="userSpaceOnUse" color-interpolation-filters="sRGB">
<feFlood flood-opacity="0" result="BackgroundImageFix"/>
<feColorMatrix in="SourceAlpha" type="matrix" values="0 0 0 0 0 0 0 0 0 0 0 0 0 0 0 0 0 0 127 0" result="hardAlpha"/>
<feOffset dy="0.56665"/>
<feGaussianBlur stdDeviation="0.56665"/>
<feColorMatrix type="matrix" values="0 0 0 0 0 0 0 0 0 0 0 0 0 0 0 0 0 0 0.05 0"/>
<feBlend mode="normal" in2="BackgroundImageFix" result="effect1_dropShadow_29_456"/>
<feBlend mode="normal" in="SourceGraphic" in2="effect1_dropShadow_29_456" result="shape"/>
</filter>
<linearGradient id="paint0_linear_29_456" x1="2.14359" y1="24" x2="29.8564" y2="8" gradientUnits="userSpaceOnUse">
<stop stop-color="#5C14AF"/>
<stop offset="1" stop-color="#FB9B00" stop-opacity="0.76"/>
</linearGradient>
</defs>
</svg>
