<svg width="32" height="33" viewBox="0 0 32 33" fill="none" xmlns="http://www.w3.org/2000/svg">
<path d="M9.33334 11.875L13.256 14.1942C15.543 15.5464 16.4571 15.5464 18.744 14.1942L22.6667 11.875" stroke="#BB3EFF" stroke-width="1.5" stroke-linecap="round" stroke-linejoin="round"/>
<path d="M2.68768 18.5098C2.77484 22.5972 2.81843 24.6409 4.3266 26.1548C5.83477 27.6687 7.93377 27.7214 12.1318 27.8269C14.7191 27.8919 17.2809 27.8919 19.8682 27.8269C24.0662 27.7214 26.1652 27.6687 27.6734 26.1548C29.1816 24.6409 29.2251 22.5972 29.3123 18.5098C29.3403 17.1956 29.3403 15.8891 29.3123 14.5748C29.2251 10.4875 29.1816 8.44378 27.6734 6.92987C26.1652 5.41596 24.0662 5.36322 19.8682 5.25774C17.2809 5.19273 14.7191 5.19273 12.1318 5.25773C7.93376 5.3632 5.83477 5.41594 4.32659 6.92985C2.81842 8.44376 2.77484 10.4874 2.68768 14.5748C2.65965 15.8891 2.65965 17.1956 2.68768 18.5098Z" stroke="#BB3EFF" stroke-width="1.5" stroke-linejoin="round"/>
</svg>
