<svg width="20" height="20" viewBox="0 0 20 20" fill="none" xmlns="http://www.w3.org/2000/svg">
<path d="M9.99858 1.6665C7.62402 1.6665 6.08435 3.349 4.26346 3.96226C3.52307 4.21161 3.15287 4.33629 3.00305 4.51205C2.85324 4.6878 2.80936 4.94463 2.72162 5.45828C1.78271 10.9548 3.83492 16.0365 8.72918 18.0144C9.25504 18.2269 9.51797 18.3332 10.0012 18.3332C10.4844 18.3332 10.7473 18.2269 11.2731 18.0144C16.1671 16.0365 18.2173 10.9548 17.2781 5.45828C17.1904 4.94454 17.1465 4.68767 16.9966 4.51191C16.8468 4.33615 16.4766 4.21154 15.7363 3.96233C13.9146 3.34913 12.3732 1.6665 9.99858 1.6665Z" stroke="#BB3EFF" stroke-width="1.5" stroke-linecap="round" stroke-linejoin="round"/>
<path d="M10 13.3335C10.1163 13.3335 10.2245 13.2805 10.4408 13.1745L12.1794 12.3225C12.9487 11.9455 13.3333 11.757 13.3333 11.4585V7.7085M10 13.3335C9.88367 13.3335 9.77552 13.2805 9.55922 13.1745L7.82066 12.3225C7.05133 11.9455 6.66667 11.757 6.66667 11.4585V7.7085M10 13.3335V9.5835M13.3333 7.7085C13.3333 7.40998 12.9487 7.22148 12.1794 6.84447L10.4408 5.99249C10.2245 5.88649 10.1163 5.8335 10 5.8335C9.88367 5.8335 9.77552 5.88649 9.55922 5.99249L7.82066 6.84447C7.05133 7.22148 6.66667 7.40998 6.66667 7.7085M13.3333 7.7085C13.3333 8.00701 12.9487 8.19551 12.1794 8.57252L10.4408 9.4245C10.2245 9.5305 10.1163 9.5835 10 9.5835M6.66667 7.7085C6.66667 8.00701 7.05133 8.19551 7.82066 8.57252L9.55922 9.4245C9.77552 9.5305 9.88367 9.5835 10 9.5835" stroke="#BB3EFF" stroke-width="1.5" stroke-linejoin="round"/>
</svg>
