<svg width="32" height="33" viewBox="0 0 32 33" fill="none" xmlns="http://www.w3.org/2000/svg">
<path d="M13.3333 27.9656C8.76191 29.5087 4.95239 27.9656 2.66667 23.209" stroke="#FB9B00" stroke-width="1.5" stroke-linecap="round" stroke-linejoin="round"/>
<path d="M13.3333 29.8757V25.5528C13.3333 24.7551 13.5786 24.0618 13.9739 23.4355C14.245 23.0058 14.0593 22.3962 13.5695 22.2615C9.51192 21.1461 6.66667 19.3526 6.66667 13.4037C6.66667 11.8571 7.17341 10.4031 8.06415 9.13751C8.28583 8.82256 8.39666 8.66509 8.42331 8.52245C8.44995 8.37982 8.40363 8.19368 8.31097 7.82141C7.93385 6.30621 7.95829 4.69723 8.5243 3.24662C8.5243 3.24662 9.6939 2.86554 12.356 4.52858C12.9638 4.90828 13.2677 5.09812 13.5353 5.14059C13.803 5.18306 14.1608 5.09411 14.8765 4.9162C15.8551 4.67292 16.8635 4.54232 18 4.54232C19.1366 4.54232 20.1449 4.67292 21.1235 4.9162C21.8392 5.09411 22.1971 5.18306 22.4647 5.14059C22.7323 5.09812 23.0362 4.90828 23.644 4.52858C26.3061 2.86554 27.4757 3.24662 27.4757 3.24662C28.0417 4.69723 28.0662 6.30621 27.689 7.82141C27.5964 8.19368 27.5501 8.37982 27.5767 8.52245C27.6033 8.66508 27.7142 8.82257 27.9359 9.13751C28.8266 10.4031 29.3333 11.8571 29.3333 13.4037C29.3333 19.3526 26.4881 21.1461 22.4306 22.2615C21.9407 22.3962 21.755 23.0058 22.0261 23.4355C22.4214 24.0618 22.6667 24.7551 22.6667 25.5528V29.8757" stroke="#FB9B00" stroke-width="1.5" stroke-linecap="round" stroke-linejoin="round"/>
</svg>
