<svg width="722" height="632" viewBox="0 0 722 632" fill="none" xmlns="http://www.w3.org/2000/svg">
<g filter="url(#filter0_f_2_2939)">
<ellipse cx="361.001" cy="311" rx="160.354" ry="121" fill="#5A189A" fill-opacity="0.2"/>
</g>
<mask id="mask0_2_2939" style="mask-type:alpha" maskUnits="userSpaceOnUse" x="88" y="105" width="546" height="412">
<ellipse cx="361" cy="311" rx="273" ry="206" fill="#FE3AAF"/>
</mask>
<g mask="url(#mask0_2_2939)">
<g opacity="0.7">
<g style="mix-blend-mode:overlay">
<circle cx="1.52989" cy="1.52989" r="1.52989" transform="matrix(0.191751 -0.945738 0.997819 0.270495 112.482 130.051)" fill="#5A189A"/>
</g>
<g style="mix-blend-mode:overlay">
<circle cx="1.52989" cy="1.52989" r="1.52989" transform="matrix(0.191751 -0.945738 0.997819 0.270495 93.7129 222.598)" fill="#5A189A"/>
</g>
<circle cx="1.52989" cy="1.52989" r="1.52989" transform="matrix(0.191751 -0.945738 0.997819 0.270495 95.5859 149.88)" fill="#5A189A"/>
<g style="mix-blend-mode:overlay">
<circle cx="3.10051" cy="3.10051" r="3.10051" transform="matrix(0.991793 -0.127852 0.220812 0.975316 151.061 223.899)" fill="#5A189A"/>
</g>
<g style="mix-blend-mode:overlay">
<circle cx="1.55106" cy="1.55106" r="1.55106" transform="matrix(0.991793 -0.127852 0.220812 0.975316 211.23 265.947)" fill="#5A189A"/>
</g>
<g style="mix-blend-mode:overlay">
<circle cx="1.55106" cy="1.55106" r="1.55106" transform="matrix(0.991793 -0.127852 0.220812 0.975316 233.041 138.635)" fill="#5A189A"/>
</g>
<g style="mix-blend-mode:overlay">
<circle cx="1.55106" cy="1.55106" r="1.55106" transform="matrix(0.991793 -0.127852 0.220812 0.975316 377.945 219.55)" fill="#5A189A"/>
</g>
<circle cx="1.55106" cy="1.55106" r="1.55106" transform="matrix(0.991793 -0.127852 0.220812 0.975316 326.061 325.831)" fill="#5A189A"/>
<g style="mix-blend-mode:overlay">
<circle cx="3.10051" cy="3.10051" r="3.10051" transform="matrix(0.991793 -0.127852 0.220812 0.975316 285.021 256.431)" fill="#5A189A"/>
</g>
<g style="mix-blend-mode:overlay">
<circle cx="3.10051" cy="3.10051" r="3.10051" transform="matrix(0.991793 -0.127852 0.220812 0.975316 336.91 150.145)" fill="#5A189A"/>
</g>
<circle cx="3.10051" cy="3.10051" r="3.10051" transform="matrix(0.991793 -0.127852 0.220812 0.975316 399.51 300.799)" fill="#5A189A"/>
<circle cx="1.55106" cy="1.55106" r="1.55106" transform="matrix(0.991793 -0.127852 0.220812 0.975316 227.654 338.512)" fill="#5A189A"/>
<circle cx="1.55106" cy="1.55106" r="1.55106" transform="matrix(0.991793 -0.127852 0.220812 0.975316 298.717 316.907)" fill="#5A189A"/>
<g style="mix-blend-mode:overlay">
<circle cx="1.55106" cy="1.55106" r="1.55106" transform="matrix(0.991793 -0.127852 0.220812 0.975316 312.312 153.317)" fill="#5A189A"/>
</g>
<g style="mix-blend-mode:overlay">
<circle cx="1.55106" cy="1.55106" r="1.55106" transform="matrix(0.991793 -0.127852 0.220812 0.975316 246.732 199.118)" fill="#5A189A"/>
</g>
<circle cx="3.38347" cy="3.38347" r="3.38347" transform="matrix(0.27787 -0.918606 0.977343 0.351783 532.268 477.827)" fill="#5A189A"/>
<g style="mix-blend-mode:overlay">
<circle cx="1.69261" cy="1.69261" r="1.69261" transform="matrix(0.27787 -0.918606 0.977343 0.351783 593.564 466.801)" fill="#5A189A"/>
</g>
<circle cx="1.69261" cy="1.69261" r="1.69261" transform="matrix(0.27787 -0.918606 0.977343 0.351783 476.338 369.46)" fill="#5A189A"/>
<g style="mix-blend-mode:overlay">
<circle cx="1.69261" cy="1.69261" r="1.69261" transform="matrix(0.27787 -0.918606 0.977343 0.351783 619.764 283.23)" fill="white"/>
</g>
<g style="mix-blend-mode:overlay">
<circle cx="3.38347" cy="3.38347" r="3.38347" transform="matrix(0.27787 -0.918606 0.977343 0.351783 616.125 392.208)" fill="#5A189A"/>
</g>
<circle cx="3.38347" cy="3.38347" r="3.38347" transform="matrix(0.27787 -0.918606 0.977343 0.351783 527.682 256.596)" fill="#5A189A"/>
<circle cx="1.69261" cy="1.69261" r="1.69261" transform="matrix(0.27787 -0.918606 0.977343 0.351783 525.354 304.392)" fill="white"/>
<circle cx="1.69261" cy="1.69261" r="1.69261" transform="matrix(0.27787 -0.918606 0.977343 0.351783 542.473 393.265)" fill="white"/>
<g style="mix-blend-mode:overlay">
<circle cx="1.87628" cy="1.87628" r="1.87628" transform="matrix(-0.692956 -0.776021 0.743117 -0.604467 169.221 508.207)" fill="white"/>
</g>
<g style="mix-blend-mode:overlay">
<circle cx="1.87628" cy="1.87628" r="1.87628" transform="matrix(-0.692956 -0.776021 0.743117 -0.604467 152.941 360.655)" fill="white"/>
</g>
<g style="mix-blend-mode:overlay">
<circle cx="3.75062" cy="3.75062" r="3.75062" transform="matrix(-0.692956 -0.776021 0.743117 -0.604467 106.846 438.352)" fill="white"/>
</g>
<g style="mix-blend-mode:overlay">
<circle cx="3.75062" cy="3.75062" r="3.75062" transform="matrix(-0.692956 -0.776021 0.743117 -0.604467 86.3301 353.535)" fill="white"/>
</g>
<g style="mix-blend-mode:overlay">
<circle cx="1.87628" cy="1.87628" r="1.87628" transform="matrix(-0.692956 -0.776021 0.743117 -0.604467 236.107 453.79)" fill="white"/>
</g>
<g style="mix-blend-mode:overlay">
<circle cx="1.87628" cy="1.87628" r="1.87628" transform="matrix(-0.692956 -0.776021 0.743117 -0.604467 162.59 393.008)" fill="white"/>
</g>
<g style="mix-blend-mode:overlay">
<circle cx="1.52989" cy="1.52989" r="1.52989" transform="matrix(0.191751 -0.945738 0.997819 0.270495 112.482 130.051)" fill="white"/>
</g>
<g style="mix-blend-mode:overlay">
<circle cx="1.52989" cy="1.52989" r="1.52989" transform="matrix(0.191751 -0.945738 0.997819 0.270495 93.7129 222.598)" fill="white"/>
</g>
<circle cx="1.52989" cy="1.52989" r="1.52989" transform="matrix(0.191751 -0.945738 0.997819 0.270495 95.5859 149.88)" fill="white"/>
<g style="mix-blend-mode:overlay">
<circle cx="3.10051" cy="3.10051" r="3.10051" transform="matrix(0.991793 -0.127852 0.220812 0.975316 151.061 223.899)" fill="white"/>
</g>
<g style="mix-blend-mode:overlay">
<circle cx="1.55106" cy="1.55106" r="1.55106" transform="matrix(0.991793 -0.127852 0.220812 0.975316 211.23 265.947)" fill="white"/>
</g>
<g style="mix-blend-mode:overlay">
<circle cx="1.55106" cy="1.55106" r="1.55106" transform="matrix(0.991793 -0.127852 0.220812 0.975316 233.041 138.635)" fill="white"/>
</g>
<g style="mix-blend-mode:overlay">
<circle cx="1.55106" cy="1.55106" r="1.55106" transform="matrix(0.991793 -0.127852 0.220812 0.975316 377.945 219.55)" fill="white"/>
</g>
<circle cx="1.55106" cy="1.55106" r="1.55106" transform="matrix(0.991793 -0.127852 0.220812 0.975316 326.061 325.831)" fill="white"/>
<g style="mix-blend-mode:overlay">
<circle cx="3.10051" cy="3.10051" r="3.10051" transform="matrix(0.991793 -0.127852 0.220812 0.975316 285.021 256.431)" fill="white"/>
</g>
<g style="mix-blend-mode:overlay">
<circle cx="3.10051" cy="3.10051" r="3.10051" transform="matrix(0.991793 -0.127852 0.220812 0.975316 336.91 150.145)" fill="white"/>
</g>
<circle cx="3.10051" cy="3.10051" r="3.10051" transform="matrix(0.991793 -0.127852 0.220812 0.975316 399.51 300.799)" fill="white"/>
<circle cx="1.55106" cy="1.55106" r="1.55106" transform="matrix(0.991793 -0.127852 0.220812 0.975316 227.654 338.512)" fill="white"/>
<circle cx="1.55106" cy="1.55106" r="1.55106" transform="matrix(0.991793 -0.127852 0.220812 0.975316 298.717 316.907)" fill="white"/>
<g style="mix-blend-mode:overlay">
<circle cx="1.55106" cy="1.55106" r="1.55106" transform="matrix(0.991793 -0.127852 0.220812 0.975316 312.312 153.317)" fill="white"/>
</g>
<g style="mix-blend-mode:overlay">
<circle cx="1.55106" cy="1.55106" r="1.55106" transform="matrix(0.991793 -0.127852 0.220812 0.975316 246.732 199.118)" fill="white"/>
</g>
<circle cx="3.38347" cy="3.38347" r="3.38347" transform="matrix(0.27787 -0.918606 0.977343 0.351783 532.268 477.827)" fill="white"/>
<g style="mix-blend-mode:overlay">
<circle cx="1.69261" cy="1.69261" r="1.69261" transform="matrix(0.27787 -0.918606 0.977343 0.351783 593.564 466.801)" fill="white"/>
</g>
<circle cx="1.69261" cy="1.69261" r="1.69261" transform="matrix(0.27787 -0.918606 0.977343 0.351783 476.338 369.46)" fill="white"/>
<g style="mix-blend-mode:overlay">
<circle cx="1.69261" cy="1.69261" r="1.69261" transform="matrix(0.27787 -0.918606 0.977343 0.351783 619.764 283.23)" fill="white"/>
</g>
<g style="mix-blend-mode:overlay">
<circle cx="3.38347" cy="3.38347" r="3.38347" transform="matrix(0.27787 -0.918606 0.977343 0.351783 616.125 392.208)" fill="white"/>
</g>
<circle cx="3.38347" cy="3.38347" r="3.38347" transform="matrix(0.27787 -0.918606 0.977343 0.351783 527.682 256.596)" fill="white"/>
<circle cx="1.69261" cy="1.69261" r="1.69261" transform="matrix(0.27787 -0.918606 0.977343 0.351783 525.354 304.392)" fill="white"/>
<circle cx="1.69261" cy="1.69261" r="1.69261" transform="matrix(0.27787 -0.918606 0.977343 0.351783 542.473 393.265)" fill="white"/>
<g style="mix-blend-mode:overlay">
<circle cx="1.87628" cy="1.87628" r="1.87628" transform="matrix(-0.692956 -0.776021 0.743117 -0.604467 169.221 508.207)" fill="white"/>
</g>
<g style="mix-blend-mode:overlay">
<circle cx="1.87628" cy="1.87628" r="1.87628" transform="matrix(-0.692956 -0.776021 0.743117 -0.604467 152.941 360.655)" fill="white"/>
</g>
<g style="mix-blend-mode:overlay">
<circle cx="3.75062" cy="3.75062" r="3.75062" transform="matrix(-0.692956 -0.776021 0.743117 -0.604467 106.846 438.352)" fill="white"/>
</g>
<g style="mix-blend-mode:overlay">
<circle cx="3.75062" cy="3.75062" r="3.75062" transform="matrix(-0.692956 -0.776021 0.743117 -0.604467 86.3301 353.535)" fill="white"/>
</g>
<g style="mix-blend-mode:overlay">
<circle cx="1.87628" cy="1.87628" r="1.87628" transform="matrix(-0.692956 -0.776021 0.743117 -0.604467 236.107 453.79)" fill="white"/>
</g>
<g style="mix-blend-mode:overlay">
<circle cx="1.87628" cy="1.87628" r="1.87628" transform="matrix(-0.692956 -0.776021 0.743117 -0.604467 162.59 393.008)" fill="white"/>
</g>
</g>
</g>
<defs>
<filter id="filter0_f_2_2939" x="0.646484" y="-10" width="720.709" height="642" filterUnits="userSpaceOnUse" color-interpolation-filters="sRGB">
<feFlood flood-opacity="0" result="BackgroundImageFix"/>
<feBlend mode="normal" in="SourceGraphic" in2="BackgroundImageFix" result="shape"/>
<feGaussianBlur stdDeviation="100" result="effect1_foregroundBlur_2_2939"/>
</filter>
</defs>
</svg>
