<svg width="20" height="20" viewBox="0 0 20 20" fill="none" xmlns="http://www.w3.org/2000/svg">
<path d="M6.9798 2.5C6.80154 2.56661 6.62623 2.63927 6.45412 2.71772M17.2648 13.5843C17.35 13.3999 17.4285 13.2119 17.5 13.0204M15.4156 16.1372C15.5588 16.0037 15.6971 15.8651 15.8303 15.7217M12.7241 17.8102C12.8858 17.7493 13.0451 17.6833 13.2018 17.6126M10.13 18.3282C9.93758 18.3349 9.74383 18.3349 9.55138 18.3282M6.48945 17.617C6.64011 17.6848 6.79321 17.7482 6.94856 17.8069M3.89382 15.7673C4.00772 15.888 4.12526 16.0053 4.24627 16.119M2.19394 13.0538C2.25634 13.2185 2.32391 13.3807 2.39646 13.5402M1.67083 10.4211C1.66542 10.2477 1.66543 10.0732 1.67083 9.89951M2.18789 7.28095C2.2492 7.11804 2.31555 6.9576 2.38677 6.79983M3.88004 4.56603C4.00058 4.43762 4.12523 4.3131 4.25377 4.1927" stroke="#FB9B00" stroke-width="1.5" stroke-linecap="round" stroke-linejoin="round"/>
<path d="M11.25 10C11.25 10.6904 10.6904 11.25 10 11.25C9.30964 11.25 8.75 10.6904 8.75 10C8.75 9.30964 9.30964 8.75 10 8.75M11.25 10C11.25 9.30964 10.6904 8.75 10 8.75M11.25 10H13.3333M10 8.75V5" stroke="#FB9B00" stroke-width="1.5" stroke-linecap="round"/>
<path d="M18.3333 9.99984C18.3333 5.39746 14.6024 1.6665 10 1.6665" stroke="#FB9B00" stroke-width="1.5" stroke-linecap="round"/>
</svg>
