<svg width="32" height="32" viewBox="0 0 32 32" fill="none" xmlns="http://www.w3.org/2000/svg">
<path d="M7.33333 13.3334C7.4962 13.3334 7.64761 13.258 7.95043 13.1073L10.3844 11.8956C11.4615 11.3594 12 11.0913 12 10.6667V5.33341M7.33333 13.3334C7.17046 13.3334 7.01905 13.258 6.71623 13.1073L4.28224 11.8956C3.20519 11.3594 2.66666 11.0913 2.66666 10.6667V5.33341M7.33333 13.3334V8.00008M12 5.33341C12 4.90886 11.4615 4.64077 10.3844 4.10458L7.95043 2.89287C7.64761 2.74212 7.4962 2.66675 7.33333 2.66675C7.17046 2.66675 7.01905 2.74212 6.71624 2.89287L4.28224 4.10458C3.20519 4.64077 2.66666 4.90886 2.66666 5.33341M12 5.33341C12 5.75797 11.4615 6.02606 10.3844 6.56225L7.95043 7.77396C7.64761 7.92471 7.4962 8.00008 7.33333 8.00008M2.66666 5.33341C2.66666 5.75797 3.20519 6.02606 4.28224 6.56224L6.71623 7.77396C7.01905 7.92471 7.17046 8.00008 7.33333 8.00008" stroke="#FB9B00" stroke-width="1.5" stroke-linejoin="round"/>
<path d="M24.6667 13.3334C24.8295 13.3334 24.9809 13.258 25.2838 13.1073L27.7178 11.8956C28.7948 11.3594 29.3333 11.0913 29.3333 10.6667V5.33341M24.6667 13.3334C24.5038 13.3334 24.3524 13.258 24.0496 13.1073L21.6156 11.8956C20.5385 11.3594 20 11.0913 20 10.6667V5.33341M24.6667 13.3334V8.00008M29.3333 5.33341C29.3333 4.90886 28.7948 4.64077 27.7178 4.10458L25.2838 2.89287C24.9809 2.74212 24.8295 2.66675 24.6667 2.66675C24.5038 2.66675 24.3524 2.74212 24.0496 2.89287L21.6156 4.10458C20.5385 4.64077 20 4.90886 20 5.33341M29.3333 5.33341C29.3333 5.75797 28.7948 6.02606 27.7178 6.56225L25.2838 7.77396C24.9809 7.92471 24.8295 8.00008 24.6667 8.00008M20 5.33341C20 5.75797 20.5385 6.02606 21.6156 6.56224L24.0496 7.77396C24.3524 7.92471 24.5038 8.00008 24.6667 8.00008" stroke="#FB9B00" stroke-width="1.5" stroke-linejoin="round"/>
<path d="M15.3333 8H16.6667" stroke="#FB9B00" stroke-width="1.5" stroke-linecap="round"/>
<path d="M2.66666 16V20.6667C2.66666 22.5393 2.66666 23.4756 3.11608 24.1482C3.31063 24.4394 3.56064 24.6894 3.85181 24.8839C4.52441 25.3333 5.46071 25.3333 7.33333 25.3333" stroke="#FB9B00" stroke-width="1.5" stroke-linecap="round"/>
<path d="M29.3333 16V20.6667C29.3333 22.5393 29.3333 23.4756 28.8839 24.1482C28.6894 24.4394 28.4394 24.6894 28.1482 24.8839C27.4756 25.3333 26.5393 25.3333 24.6667 25.3333" stroke="#FB9B00" stroke-width="1.5" stroke-linecap="round"/>
<path d="M16 29.3334C16.1629 29.3334 16.3143 29.258 16.6171 29.1073L19.0511 27.8956C20.1281 27.3594 20.6667 27.0913 20.6667 26.6667V21.3334M16 29.3334C15.8371 29.3334 15.6857 29.258 15.3829 29.1073L12.9489 27.8956C11.8719 27.3594 11.3333 27.0913 11.3333 26.6667V21.3334M16 29.3334V24.0001M20.6667 21.3334C20.6667 20.9089 20.1281 20.6408 19.0511 20.1046L16.6171 18.8929C16.3143 18.7421 16.1629 18.6667 16 18.6667C15.8371 18.6667 15.6857 18.7421 15.3829 18.8929L12.9489 20.1046C11.8719 20.6408 11.3333 20.9089 11.3333 21.3334M20.6667 21.3334C20.6667 21.758 20.1281 22.0261 19.0511 22.5622L16.6171 23.774C16.3143 23.9247 16.1629 24.0001 16 24.0001M11.3333 21.3334C11.3333 21.758 11.8719 22.0261 12.9489 22.5622L15.3829 23.774C15.6857 23.9247 15.8371 24.0001 16 24.0001" stroke="#FB9B00" stroke-width="1.5" stroke-linejoin="round"/>
</svg>
