<svg width="32" height="32" viewBox="0 0 32 32" fill="none" xmlns="http://www.w3.org/2000/svg">
<path d="M18.6667 23.9998C24.5577 23.9998 29.3333 19.2242 29.3333 13.3332C29.3333 7.44213 24.5577 2.6665 18.6667 2.6665C12.7756 2.6665 8 7.44213 8 13.3332C8 19.2242 12.7756 23.9998 18.6667 23.9998Z" stroke="#FB9B00" stroke-width="1.5" stroke-linecap="round"/>
<path d="M4.13386 14.6665C3.20439 16.1419 2.66666 17.8888 2.66666 19.7614C2.66666 25.0477 6.95222 29.3332 12.2387 29.3332C14.1111 29.3332 15.858 28.7956 17.3333 27.8663" stroke="#FB9B00" stroke-width="1.5" stroke-linecap="round"/>
<path d="M16 13.3335H20.6667M16 13.3335V8.66683H18.6667M16 13.3335V18.0002H18.6667M20.6667 13.3335C21.7712 13.3335 22.6667 12.2888 22.6667 11.0002C22.6667 9.7115 21.7712 8.66683 20.6667 8.66683H18.6667M20.6667 13.3335C21.7712 13.3335 22.6667 14.3782 22.6667 15.6668C22.6667 16.9555 21.7712 18.0002 20.6667 18.0002H18.6667M18.6667 18.0002V19.3335M18.6667 8.66683V7.3335" stroke="#FB9B00" stroke-width="1.5" stroke-linecap="round"/>
</svg>
