<svg width="32" height="32" viewBox="0 0 32 32" fill="none" xmlns="http://www.w3.org/2000/svg">
<path d="M15.9977 2.66675C12.1984 2.66675 9.73497 5.35874 6.82153 6.33995C5.63691 6.73892 5.04459 6.93841 4.80489 7.21961C4.56518 7.50082 4.49498 7.91175 4.3546 8.73359C2.85234 17.5281 6.13587 25.6587 13.9667 28.8234C14.8081 29.1634 15.2288 29.3334 16.0019 29.3334C16.775 29.3334 17.1957 29.1634 18.037 28.8234C25.8673 25.6587 29.1477 17.528 27.645 8.73358C27.5046 7.9116 27.4343 7.50061 27.1946 7.2194C26.9548 6.93818 26.3626 6.73881 25.178 6.34006C22.2634 5.35894 19.7972 2.66675 15.9977 2.66675Z" stroke="#BB3EFF" stroke-width="1.5" stroke-linecap="round" stroke-linejoin="round"/>
<path d="M16 21.3333C16.1861 21.3333 16.3592 21.2485 16.7053 21.0789L19.487 19.7157C20.7179 19.1125 21.3333 18.8109 21.3333 18.3333V12.3333M16 21.3333C15.8139 21.3333 15.6408 21.2485 15.2948 21.0789L12.513 19.7157C11.2821 19.1125 10.6667 18.8109 10.6667 18.3333V12.3333M16 21.3333V15.3333M21.3333 12.3333C21.3333 11.8556 20.7179 11.554 19.487 10.9508L16.7053 9.58764C16.3592 9.41805 16.1861 9.33325 16 9.33325C15.8139 9.33325 15.6408 9.41805 15.2948 9.58764L12.513 10.9508C11.2821 11.554 10.6667 11.8556 10.6667 12.3333M21.3333 12.3333C21.3333 12.8109 20.7179 13.1125 19.487 13.7157L16.7053 15.0789C16.3592 15.2485 16.1861 15.3333 16 15.3333M10.6667 12.3333C10.6667 12.8109 11.2821 13.1125 12.513 13.7157L15.2948 15.0789C15.6408 15.2485 15.8139 15.3333 16 15.3333" stroke="#BB3EFF" stroke-width="1.5" stroke-linejoin="round"/>
</svg>
