<svg width="32" height="32" viewBox="0 0 32 32" fill="none" xmlns="http://www.w3.org/2000/svg">
<path d="M25.3333 21.3334V18.6667C25.3333 14.8955 25.3333 13.0099 24.1618 11.8383C22.9902 10.6667 21.1046 10.6667 17.3333 10.6667H14.6667C10.8954 10.6667 9.00982 10.6667 7.83824 11.8383C6.66667 13.0099 6.66667 14.8955 6.66667 18.6667V21.3334C6.66667 25.1047 6.66667 26.9903 7.83824 28.1618C9.00982 29.3334 10.8954 29.3334 14.6667 29.3334H17.3333C21.1046 29.3334 22.9902 29.3334 24.1618 28.1618C25.3333 26.9903 25.3333 25.1047 25.3333 21.3334Z" stroke="#FB9B00" stroke-width="1.5" stroke-linejoin="round"/>
<path d="M25.3333 24C27.2189 24 28.1618 24 28.7475 23.4142C29.3333 22.8284 29.3333 21.8856 29.3333 20C29.3333 18.1144 29.3333 17.1716 28.7475 16.5858C28.1618 16 27.2189 16 25.3333 16" stroke="#FB9B00" stroke-width="1.5" stroke-linejoin="round"/>
<path d="M6.66666 24C4.78105 24 3.83824 24 3.25245 23.4142C2.66666 22.8284 2.66666 21.8856 2.66666 20C2.66666 18.1144 2.66666 17.1716 3.25245 16.5858C3.83824 16 4.78105 16 6.66666 16" stroke="#FB9B00" stroke-width="1.5" stroke-linejoin="round"/>
<path d="M18 4.66675C18 5.77132 17.1046 6.66675 16 6.66675C14.8954 6.66675 14 5.77132 14 4.66675C14 3.56218 14.8954 2.66675 16 2.66675C17.1046 2.66675 18 3.56218 18 4.66675Z" stroke="#FB9B00" stroke-width="1.5"/>
<path d="M16 6.66675V10.6667" stroke="#FB9B00" stroke-width="1.5" stroke-linecap="round" stroke-linejoin="round"/>
<path d="M12 17.3333V18.6666" stroke="#FB9B00" stroke-width="1.5" stroke-linecap="round" stroke-linejoin="round"/>
<path d="M20 17.3333V18.6666" stroke="#FB9B00" stroke-width="1.5" stroke-linecap="round" stroke-linejoin="round"/>
<path d="M13.3333 23.3333C13.3333 23.3333 14.2222 23.9999 16 23.9999C17.7778 23.9999 18.6667 23.3333 18.6667 23.3333" stroke="#FB9B00" stroke-width="1.5" stroke-linecap="round"/>
</svg>
