<svg width="21" height="20" viewBox="0 0 21 20" fill="none" xmlns="http://www.w3.org/2000/svg">
<path d="M7.47977 2.5C7.30151 2.56661 7.1262 2.63927 6.95409 2.71772M17.7647 13.5843C17.8499 13.3999 17.9284 13.2119 18 13.0204M15.9156 16.1372C16.0587 16.0037 16.197 15.8651 16.3303 15.7217M13.2241 17.8102C13.3858 17.7493 13.5451 17.6833 13.7017 17.6126M10.63 18.3282C10.4376 18.3349 10.2438 18.3349 10.0513 18.3282M6.98942 17.617C7.14008 17.6848 7.29318 17.7482 7.44853 17.8069M4.39379 15.7673C4.50769 15.888 4.62523 16.0053 4.74624 16.119M2.69391 13.0538C2.75631 13.2185 2.82388 13.3807 2.89643 13.5402M2.1708 10.4211C2.16539 10.2477 2.1654 10.0732 2.1708 9.89951M2.68786 7.28095C2.74917 7.11804 2.81552 6.9576 2.88674 6.79983M4.38001 4.56603C4.50055 4.43762 4.6252 4.3131 4.75374 4.1927" stroke="#FB9B00" stroke-width="1.5" stroke-linecap="round" stroke-linejoin="round"/>
<path d="M11.75 10C11.75 10.6904 11.1903 11.25 10.5 11.25C9.80961 11.25 9.24997 10.6904 9.24997 10C9.24997 9.30964 9.80961 8.75 10.5 8.75M11.75 10C11.75 9.30964 11.1903 8.75 10.5 8.75M11.75 10H13.8333M10.5 8.75V5" stroke="#FB9B00" stroke-width="1.5" stroke-linecap="round"/>
<path d="M18.8333 10.0001C18.8333 5.39771 15.1024 1.66675 10.5 1.66675" stroke="#FB9B00" stroke-width="1.5" stroke-linecap="round"/>
</svg>
